<svg width="3645" height="2779" viewBox="0 0 3645 2779" fill="none" xmlns="http://www.w3.org/2000/svg">
<path d="M1286 826C1300.93 835.368 1370.91 942.273 1384.85 952.746C1405.08 967.948 1427.1 980.362 1447.38 995.425C1459.26 1004.24 1472.05 1019.83 1485.02 1025.99C1515.1 1040.26 1586.31 1029.58 1607.24 1056.86C1610.43 1061.02 1612.72 1068.21 1615.87 1071.92C1627.56 1085.65 1665.4 1095.99 1682.46 1104.37C1694.54 1110.3 1716.55 1129.08 1725.41 1132.11C1736.35 1135.85 1746.45 1137.25 1758.96 1141.71C1763.82 1143.45 1770.48 1142.59 1775.22 1145.59C1782.06 1149.92 1782.75 1166.58 1786.59 1175.24C1790.68 1184.49 1797.27 1197.89 1807.96 1191.96C1832.89 1178.12 1812.98 1150.59 1820.37 1134.83C1822.84 1129.57 1831.56 1129.79 1833.77 1127.12C1840.9 1118.47 1836.95 1069.31 1849.83 1065.43C1853.52 1064.32 1874.66 1075.38 1877.33 1078.23C1885.67 1087.13 1877.85 1100.18 1888.28 1105.4C1914.47 1118.53 2010.9 1100.31 2037.85 1086.96C2046.88 1082.48 2054.28 1074.01 2063.61 1071.07C2075.52 1067.31 2087.51 1069.14 2099.73 1063.87C2117.24 1056.32 2144.18 1025.72 2165.39 1014.51C2197.64 997.467 2268.44 986.438 2292.65 1019.82C2306.44 1038.83 2340.62 1102.17 2350.09 1124.57C2356.14 1138.9 2367.84 1170.31 2365.37 1185.21C2363.26 1197.93 2347.32 1206.01 2339.21 1214.27C2330.48 1223.17 2326.13 1233.35 2319.19 1240.89C2290.56 1272.02 2264.2 1295.46 2239.74 1331.68C2219.38 1361.84 2207.47 1396.48 2170.97 1412.5C2160.21 1417.23 2142.16 1419.18 2133.68 1425.84C2126.7 1431.32 2121.17 1445.87 2115.3 1453.08C2094.46 1478.75 2051.21 1490.48 2025.27 1508.78C2012.86 1517.53 2016.5 1528.02 1997.25 1524.06C1984.39 1521.41 1986.77 1511.48 1964.35 1514.68C1947.38 1517.1 1952.54 1526.09 1949.31 1528.3C1944.61 1531.49 1937.09 1520.68 1933 1518.38C1927.46 1515.27 1898.41 1506.48 1892.95 1507.19C1885.87 1508.11 1886.12 1517.39 1880.23 1521.68C1875.75 1524.96 1872.46 1524.01 1869.27 1525.97C1855.19 1534.65 1869.33 1543.32 1867.92 1554.99C1866.39 1556.73 1849.04 1550.52 1846.18 1548.72C1840.3 1545.02 1829.04 1527.45 1827.44 1526.98C1823.47 1525.77 1815.84 1533.92 1810.63 1533.59C1799.89 1532.9 1804.63 1518.32 1785.33 1524.07C1783.61 1524.58 1784.87 1526.94 1783.8 1527.35C1781.87 1528.07 1776.76 1527.13 1773.91 1528.65C1766.6 1532.56 1764.32 1537.23 1761.04 1544.1C1760.53 1545.16 1757.96 1545.06 1757.86 1545.22C1756.95 1546.95 1765.63 1557.06 1759.69 1557.29L1740.95 1558.01C1732.04 1558.35 1725.21 1545.08 1718.58 1541.2C1711.95 1537.33 1704.49 1537.43 1696.79 1531.57C1679.02 1518.04 1684.54 1498.15 1656.53 1518.67C1652.89 1521.33 1639.41 1534.58 1637.41 1538.03C1634.8 1542.51 1634.25 1559.12 1620.53 1554.41C1615.48 1552.68 1593.75 1493.08 1584.47 1481.22C1575.15 1469.32 1561.82 1466.94 1553.22 1454.51C1528.08 1454.7 1484.53 1478.39 1485.26 1433.24C1485.4 1424.09 1496.55 1388.26 1501.53 1380.59C1503.38 1377.75 1502.62 1382.78 1503.9 1380.98C1515.98 1364.07 1527.04 1358.61 1520.43 1333.87C1517.2 1321.78 1496.77 1325.9 1486.94 1322.26C1484.95 1321.52 1454.91 1298.43 1453.78 1296.63C1444.53 1281.95 1458.99 1251.59 1452.77 1234.32C1451.96 1232.06 1429.02 1195.72 1427.15 1193.73C1425.03 1191.45 1398.84 1171.46 1396.81 1170.92C1384.82 1167.7 1366.29 1173.35 1357.98 1182.64C1343.09 1199.33 1362.86 1214.52 1360.4 1234.12C1346.17 1234.29 1343.01 1219.17 1332.66 1211.89C1331.29 1210.93 1317.24 1204.06 1316.33 1204.06C1312.81 1204.07 1312.67 1207.73 1310.17 1207.91C1305.43 1208.24 1276.9 1178.74 1269.11 1176.12C1253.08 1183.8 1235.01 1189.62 1231.19 1208.84C1230.21 1213.8 1231.6 1221.83 1231.51 1222.56C1229.23 1239.5 1224.56 1250.88 1227.76 1269.57C1229.8 1281.55 1237.12 1289.42 1236.44 1304.03C1235.71 1319.97 1222.78 1328.43 1225.98 1349.5C1228.16 1363.85 1246.21 1368.97 1246.72 1377.62C1247.16 1385.1 1240.55 1384.56 1238.01 1389.46C1230.88 1403.18 1256.81 1434.78 1238.9 1451.69C1220.99 1468.6 1185.72 1453.96 1170.38 1439.79C1167.65 1437.26 1164.93 1430.37 1164.41 1430.15C1163.53 1429.78 1160.94 1434.3 1159.24 1434.82C1137.97 1441.26 1128.39 1428.52 1139.78 1409.57C1147.45 1396.79 1151.65 1398.57 1155.45 1379.83C1161.74 1348.79 1147.38 1340.77 1145.93 1314.07C1145.6 1308.18 1149.45 1289.01 1148.48 1286.93C1148.03 1285.97 1139.53 1282.75 1137.09 1280.68C1130.21 1274.83 1124.15 1263.78 1115.74 1261.32L1102.97 928.92L1225.98 889L1286 826Z" fill="#FBD439"/>
<path d="M1220.63 1480.69C1228.55 1484.05 1220.28 1511.25 1222.09 1513.24C1229.54 1512.51 1249.7 1494.55 1256.29 1499.22C1266.87 1506.7 1226.32 1524.76 1224.16 1526.46C1204.84 1541.6 1219.78 1609.27 1208.34 1618.36C1189.87 1633.02 1203.78 1581.59 1203.98 1579.11C1205.29 1562.92 1197.96 1543.86 1199.4 1530.61C1200.43 1521.09 1209.33 1516.55 1210.5 1510.18C1211.75 1503.25 1207.88 1493.13 1209.64 1487.7C1210.6 1484.72 1217.26 1479.25 1220.65 1480.69L1220.63 1480.69Z" fill="#FBD439"/>
<path d="M1174.16 1665.22C1175.27 1664.94 1176.1 1664.98 1176.84 1665.93C1184.54 1678.84 1192.94 1696.98 1202.91 1708C1213.38 1719.57 1236.34 1726.42 1232.01 1745.96C1229.68 1748.04 1206.66 1731.31 1203.64 1728.66C1194.47 1720.62 1183.03 1704.87 1178.2 1693.72C1176.31 1689.36 1167.23 1667.02 1174.16 1665.22ZM1226.98 1739.05L1221.02 1729.9C1221.43 1733.77 1223.37 1737.33 1226.98 1739.05Z" fill="#FBD439"/>
<path d="M1368.15 1411.14C1366.91 1416.93 1376.8 1428.09 1368.06 1432.12C1354.81 1438.22 1329.39 1394.38 1368.15 1411.14Z" fill="#FBD439"/>
<path d="M1263.08 1454.6C1275.44 1449.53 1289.44 1487.59 1274.09 1482.93C1272.28 1482.38 1259.37 1458.73 1263.08 1454.6Z" fill="#FBD439"/>
<path d="M1327.05 1419.89C1316.72 1424.5 1313.34 1411.66 1321.75 1406.35C1323.68 1405.96 1330.51 1417.66 1327.05 1419.89Z" fill="#FBD439"/>
<path d="M1250.4 1395.88C1254.07 1392.56 1263.05 1407.88 1257.86 1410.52C1252.07 1413.46 1247.77 1398.25 1250.4 1395.88Z" fill="#FBD439"/>
<path d="M1332.84 1397.25C1328.26 1400.68 1320.82 1390.78 1326.11 1385.63C1332.77 1382.09 1335.63 1395.17 1332.84 1397.25Z" fill="#FBD439"/>
<path d="M1166.18 1574.37C1161.86 1577.48 1156.16 1565.45 1159.22 1562.96C1166.03 1557.4 1169.09 1572.3 1166.18 1574.37Z" fill="#FBD439"/>
<path d="M1170.35 1707.6C1183.45 1726.17 1168.15 1724.21 1166.71 1708.05L1170.35 1707.6Z" fill="#FBD439"/>
<path d="M1422.38 1356.45L1415.68 1356.16C1413.59 1351.91 1414.43 1344.27 1420.59 1347.13L1422.36 1356.45L1422.38 1356.45Z" fill="#FBD439"/>
<path d="M1254.99 1324.6C1255.26 1325 1256.6 1333.53 1256.49 1334.17C1254.66 1343.43 1245.96 1326.08 1251.96 1323.75C1252.74 1323.79 1254.69 1324.16 1255 1324.62L1254.99 1324.6Z" fill="#FBD439"/>
<path d="M1438.27 1325.6C1432.79 1323.1 1440.28 1313.9 1443.42 1316.65C1446.55 1319.4 1443.89 1328.16 1438.27 1325.6Z" fill="#FBD439"/>
<path d="M1252.68 1285.14C1262.33 1305.5 1243.92 1292.7 1248.45 1286.18L1252.68 1285.14Z" fill="#FBD439"/>
<path d="M1185.33 1563.64C1187.56 1565.76 1187.22 1573.22 1182.74 1572.82C1180.83 1572.33 1176.89 1562.66 1181.31 1562.61C1182.55 1562.66 1184.43 1562.8 1185.33 1563.64Z" fill="#FBD439"/>
<path d="M1181.18 1596.39C1180.23 1599.41 1183.47 1602.15 1183.45 1604.29C1183.41 1613.18 1168.14 1598.36 1181.18 1596.39Z" fill="#FBD439"/>
<path d="M1250.34 1589.99C1250.89 1590.43 1247.3 1603.02 1243.18 1600.15C1240.19 1598.06 1246.45 1586.88 1250.34 1589.99Z" fill="#FBD439"/>
<path d="M1274.28 1309.62C1277.05 1306.21 1285.08 1316.44 1278.7 1318.75C1274.22 1320.37 1273.5 1310.56 1274.28 1309.62Z" fill="#FBD439"/>
<path d="M1405.39 1309.1C1399.19 1313.02 1400.17 1302.21 1401.62 1301.11C1406.61 1297.34 1409.97 1306.19 1405.39 1309.1Z" fill="#FBD439"/>
<path d="M1261.71 1390.47C1252.65 1379.8 1277.68 1389.69 1266.91 1393.22C1266.36 1393.19 1262.13 1390.94 1261.71 1390.47Z" fill="#FBD439"/>
<path d="M1259.58 1270.86C1263.63 1275.62 1254.53 1280.67 1252.43 1274.16C1250.54 1268.35 1259.25 1270.48 1259.58 1270.86Z" fill="#FBD439"/>
<path d="M1261.64 1546.6L1264.8 1552.35C1256.3 1560.81 1255.19 1543 1261.64 1546.6Z" fill="#FBD439"/>
<path d="M1200.71 1665.03C1198.36 1667.82 1191.77 1660.71 1194.79 1656.83C1199.48 1654.38 1202.01 1663.48 1200.71 1665.03Z" fill="#FBD439"/>
<path d="M1399.39 1319.82C1400.68 1328.96 1393.26 1331.33 1393.97 1321.12L1399.39 1319.82Z" fill="#FBD439"/>
<path d="M1484.58 1339.98C1485.03 1340.44 1485.89 1348.51 1481.69 1347.5C1476.27 1346.2 1481.7 1337.01 1484.58 1339.98Z" fill="#FBD439"/>
<path d="M1456.72 1353.43C1457.19 1354.26 1456.99 1355.16 1457.06 1356.03L1449.55 1356.32L1450.9 1351.64C1452.12 1351.01 1456.35 1352.79 1456.71 1353.41L1456.72 1353.43Z" fill="#FBD439"/>
</svg>
