<svg width="3400" height="3680" viewBox="0 0 3400 3680" fill="none" xmlns="http://www.w3.org/2000/svg">
<path d="M1163 1276C1177.93 1285.37 1247.91 1392.27 1261.85 1402.75C1282.08 1417.95 1304.11 1430.36 1324.38 1445.42C1336.26 1454.24 1349.05 1469.83 1362.02 1475.99C1392.1 1490.26 1463.31 1479.58 1484.24 1506.86C1487.43 1511.02 1489.72 1518.21 1492.87 1521.92C1504.56 1535.65 1542.4 1545.99 1559.46 1554.37C1571.54 1560.3 1593.56 1579.08 1602.41 1582.11C1613.36 1585.85 1623.45 1587.25 1635.96 1591.71C1640.82 1593.45 1647.48 1592.59 1652.22 1595.59C1659.06 1599.92 1659.76 1616.58 1663.6 1625.24C1667.68 1634.49 1674.27 1647.89 1684.97 1641.96C1709.89 1628.12 1689.98 1600.59 1697.37 1584.83C1699.84 1579.57 1708.57 1579.79 1710.77 1577.12C1717.9 1568.47 1713.95 1519.31 1726.84 1515.43C1730.53 1514.32 1751.66 1525.38 1754.33 1528.23C1762.67 1537.13 1754.85 1550.18 1765.28 1555.4C1791.47 1568.53 1887.9 1550.31 1914.85 1536.96C1923.88 1532.48 1931.28 1524.01 1940.61 1521.07C1952.52 1517.31 1964.51 1519.14 1976.73 1513.87C1994.24 1506.32 2021.19 1475.72 2042.39 1464.51C2074.64 1447.47 2145.45 1436.44 2169.66 1469.82C2183.44 1488.83 2217.63 1552.17 2227.09 1574.57C2233.14 1588.9 2244.84 1620.31 2242.37 1635.21C2240.26 1647.93 2224.32 1656.01 2216.21 1664.27C2207.48 1673.17 2203.13 1683.35 2196.19 1690.89C2167.57 1722.02 2141.2 1745.46 2116.74 1781.68C2096.39 1811.84 2084.47 1846.48 2047.97 1862.5C2037.21 1867.23 2019.16 1869.18 2010.68 1875.84C2003.7 1881.32 1998.17 1895.87 1992.31 1903.08C1971.46 1928.75 1928.21 1940.48 1902.27 1958.78C1889.86 1967.53 1893.5 1978.02 1874.25 1974.06C1861.39 1971.41 1863.78 1961.48 1841.35 1964.68C1824.38 1967.1 1829.54 1976.09 1826.31 1978.3C1821.61 1981.49 1814.09 1970.68 1810 1968.38C1804.46 1965.27 1775.42 1956.48 1769.96 1957.19C1762.87 1958.11 1763.12 1967.39 1757.24 1971.68C1752.75 1974.96 1749.46 1974.01 1746.27 1975.97C1732.19 1984.65 1746.34 1993.32 1744.93 2004.99C1743.39 2006.73 1726.04 2000.52 1723.19 1998.72C1717.3 1995.02 1706.05 1977.45 1704.44 1976.98C1700.48 1975.77 1692.84 1983.92 1687.64 1983.59C1676.89 1982.9 1681.63 1968.32 1662.33 1974.07C1660.61 1974.58 1661.87 1976.94 1660.81 1977.35C1658.87 1978.07 1653.76 1977.13 1650.91 1978.65C1643.6 1982.56 1641.32 1987.23 1638.04 1994.1C1637.53 1995.16 1634.96 1995.06 1634.87 1995.22C1633.95 1996.95 1642.63 2007.06 1636.69 2007.29L1617.95 2008.01C1609.04 2008.35 1602.21 1995.08 1595.58 1991.2C1588.95 1987.33 1581.49 1987.43 1573.8 1981.57C1556.03 1968.04 1561.54 1948.15 1533.53 1968.67C1529.89 1971.33 1516.41 1984.58 1514.41 1988.03C1511.8 1992.51 1511.25 2009.12 1497.53 2004.41C1492.48 2002.68 1470.75 1943.08 1461.47 1931.22C1452.16 1919.32 1438.82 1916.94 1430.22 1904.51C1405.08 1904.7 1361.53 1928.39 1362.26 1883.24C1362.4 1874.09 1373.55 1838.26 1378.54 1830.59C1380.39 1827.75 1379.62 1832.78 1380.91 1830.98C1392.98 1814.07 1404.04 1808.61 1397.43 1783.87C1394.2 1771.78 1373.77 1775.9 1363.94 1772.26C1361.95 1771.52 1331.91 1748.43 1330.78 1746.63C1321.53 1731.95 1336 1701.59 1329.78 1684.32C1328.97 1682.06 1306.02 1645.72 1304.15 1643.73C1302.04 1641.45 1275.85 1621.46 1273.81 1620.92C1261.82 1617.7 1243.29 1623.35 1234.98 1632.64C1220.09 1649.33 1239.87 1664.52 1237.4 1684.12C1223.17 1684.29 1220.01 1669.17 1209.67 1661.89C1208.29 1660.93 1194.25 1654.06 1193.33 1654.06C1189.81 1654.07 1189.67 1657.73 1187.17 1657.91C1182.44 1658.24 1153.9 1628.74 1146.11 1626.12C1130.08 1633.8 1112.01 1639.62 1108.19 1658.84C1107.21 1663.8 1108.6 1671.83 1108.51 1672.56C1106.24 1689.5 1101.56 1700.88 1104.76 1719.57C1106.8 1731.55 1114.12 1739.42 1113.45 1754.03C1112.72 1769.97 1099.78 1778.43 1102.98 1799.5C1105.17 1813.85 1123.22 1818.97 1123.72 1827.62C1124.16 1835.1 1117.56 1834.56 1115.01 1839.46C1107.88 1853.18 1133.81 1884.78 1115.9 1901.69C1097.99 1918.6 1062.72 1903.96 1047.39 1889.79C1044.66 1887.26 1041.93 1880.37 1041.41 1880.15C1040.53 1879.78 1037.94 1884.3 1036.24 1884.82C1014.97 1891.26 1005.4 1878.52 1016.78 1859.57C1024.46 1846.79 1028.65 1848.57 1032.46 1829.83C1038.75 1798.79 1024.38 1790.77 1022.93 1764.07C1022.6 1758.18 1026.45 1739.01 1025.48 1736.93C1025.03 1735.97 1016.53 1732.75 1014.09 1730.68C1007.21 1724.83 1001.15 1713.78 992.745 1711.32L979.971 1378.92L1102.98 1339L1163 1276Z" fill="#EAC225"/>
<path d="M1097.63 1930.69C1105.55 1934.05 1097.28 1961.25 1099.09 1963.24C1106.55 1962.51 1126.7 1944.55 1133.3 1949.22C1143.87 1956.7 1103.32 1974.76 1101.16 1976.46C1081.85 1991.6 1096.78 2059.27 1085.35 2068.36C1066.87 2083.02 1080.79 2031.59 1080.98 2029.11C1082.29 2012.92 1074.97 1993.86 1076.4 1980.61C1077.43 1971.09 1086.34 1966.55 1087.5 1960.18C1088.75 1953.25 1084.89 1943.13 1086.64 1937.7C1087.61 1934.72 1094.26 1929.25 1097.65 1930.69L1097.63 1930.69Z" fill="#EAC225"/>
<path d="M1051.16 2115.22C1052.27 2114.94 1053.1 2114.98 1053.84 2115.93C1061.54 2128.84 1069.94 2146.98 1079.91 2158C1090.39 2169.57 1113.34 2176.42 1109.01 2195.96C1106.69 2198.04 1083.67 2181.31 1080.64 2178.66C1071.47 2170.62 1060.03 2154.87 1055.2 2143.72C1053.31 2139.36 1044.23 2117.02 1051.16 2115.22ZM1103.98 2189.05L1098.03 2179.9C1098.43 2183.77 1100.37 2187.33 1103.98 2189.05Z" fill="#EAC225"/>
<path d="M1245.15 1861.14C1243.91 1866.93 1253.8 1878.09 1245.07 1882.12C1231.81 1888.22 1206.39 1844.38 1245.15 1861.14Z" fill="#EAC225"/>
<path d="M1140.08 1904.6C1152.44 1899.53 1166.44 1937.59 1151.09 1932.93C1149.28 1932.38 1136.37 1908.73 1140.08 1904.6Z" fill="#EAC225"/>
<path d="M1204.05 1869.89C1193.72 1874.5 1190.34 1861.66 1198.75 1856.35C1200.68 1855.96 1207.51 1867.66 1204.05 1869.89Z" fill="#EAC225"/>
<path d="M1127.4 1845.88C1131.07 1842.56 1140.05 1857.88 1134.86 1860.52C1129.07 1863.46 1124.77 1848.25 1127.4 1845.88Z" fill="#EAC225"/>
<path d="M1209.84 1847.25C1205.26 1850.68 1197.83 1840.78 1203.12 1835.63C1209.77 1832.09 1212.63 1845.17 1209.84 1847.25Z" fill="#EAC225"/>
<path d="M1043.18 2024.37C1038.87 2027.48 1033.16 2015.45 1036.23 2012.96C1043.03 2007.4 1046.1 2022.3 1043.18 2024.37Z" fill="#EAC225"/>
<path d="M1047.36 2157.6C1060.45 2176.17 1045.16 2174.21 1043.71 2158.05L1047.36 2157.6Z" fill="#EAC225"/>
<path d="M1299.38 1806.45L1292.68 1806.16C1290.59 1801.91 1291.43 1794.27 1297.6 1797.13L1299.36 1806.45L1299.38 1806.45Z" fill="#EAC225"/>
<path d="M1131.99 1774.6C1132.26 1775 1133.6 1783.53 1133.49 1784.17C1131.66 1793.43 1122.96 1776.08 1128.96 1773.75C1129.74 1773.79 1131.7 1774.16 1132.01 1774.62L1131.99 1774.6Z" fill="#EAC225"/>
<path d="M1315.28 1775.6C1309.8 1773.1 1317.29 1763.9 1320.42 1766.65C1323.55 1769.4 1320.89 1778.16 1315.28 1775.6Z" fill="#EAC225"/>
<path d="M1129.68 1735.14C1139.34 1755.5 1120.92 1742.7 1125.45 1736.18L1129.68 1735.14Z" fill="#EAC225"/>
<path d="M1062.33 2013.64C1064.56 2015.76 1064.23 2023.22 1059.74 2022.82C1057.83 2022.33 1053.9 2012.66 1058.31 2012.61C1059.55 2012.66 1061.43 2012.8 1062.33 2013.64Z" fill="#EAC225"/>
<path d="M1058.19 2046.39C1057.23 2049.41 1060.47 2052.15 1060.45 2054.29C1060.41 2063.18 1045.14 2048.36 1058.19 2046.39Z" fill="#EAC225"/>
<path d="M1127.34 2039.99C1127.89 2040.43 1124.3 2053.02 1120.18 2050.15C1117.19 2048.06 1123.46 2036.88 1127.34 2039.99Z" fill="#EAC225"/>
<path d="M1151.28 1759.62C1154.05 1756.21 1162.08 1766.44 1155.7 1768.75C1151.23 1770.37 1150.5 1760.56 1151.28 1759.62Z" fill="#EAC225"/>
<path d="M1282.39 1759.1C1276.19 1763.02 1277.17 1752.21 1278.63 1751.11C1283.61 1747.34 1286.97 1756.19 1282.39 1759.1Z" fill="#EAC225"/>
<path d="M1138.71 1840.47C1129.65 1829.8 1154.68 1839.69 1143.91 1843.22C1143.36 1843.19 1139.13 1840.94 1138.71 1840.47Z" fill="#EAC225"/>
<path d="M1136.58 1720.86C1140.63 1725.62 1131.54 1730.67 1129.43 1724.16C1127.54 1718.35 1136.25 1720.48 1136.58 1720.86Z" fill="#EAC225"/>
<path d="M1138.64 1996.6L1141.8 2002.35C1133.31 2010.81 1132.19 1993 1138.64 1996.6Z" fill="#EAC225"/>
<path d="M1077.71 2115.03C1075.36 2117.82 1068.78 2110.71 1071.79 2106.83C1076.48 2104.38 1079.01 2113.48 1077.71 2115.03Z" fill="#EAC225"/>
<path d="M1276.39 1769.82C1277.68 1778.96 1270.26 1781.33 1270.97 1771.12L1276.39 1769.82Z" fill="#EAC225"/>
<path d="M1361.58 1789.98C1362.03 1790.44 1362.89 1798.51 1358.69 1797.5C1353.27 1796.2 1358.7 1787.01 1361.58 1789.98Z" fill="#EAC225"/>
<path d="M1333.72 1803.43C1334.2 1804.26 1333.99 1805.16 1334.06 1806.03L1326.55 1806.32L1327.9 1801.64C1329.12 1801.01 1333.35 1802.79 1333.72 1803.41L1333.72 1803.43Z" fill="#EAC225"/>
</svg>
