<svg width="3645" height="2779" viewBox="0 0 3645 2779" fill="none" xmlns="http://www.w3.org/2000/svg">
<path d="M1473.3 1099.87C1476.55 1102.85 1488.84 1097.86 1497.28 1094.43L1497.28 1094.43L1497.28 1094.43C1500.17 1093.26 1502.6 1092.27 1504.07 1091.85C1529.35 1084.56 1538.54 1091.07 1553.61 1101.74C1556.82 1104.02 1560.31 1106.49 1564.27 1109.05C1582.37 1120.76 1615.55 1134.62 1636.8 1137.78C1640.51 1138.33 1643.78 1138.49 1646.81 1138.63C1655.42 1139.06 1661.98 1139.38 1670.62 1148.35C1673.42 1151.26 1676.18 1154.52 1679 1157.84L1679 1157.85C1685.74 1165.79 1692.83 1174.15 1701.6 1179.13C1704.8 1180.95 1732.1 1191.61 1734.96 1191.92C1738.04 1192.28 1741.29 1191.78 1744.58 1191.28C1747.1 1190.89 1749.64 1190.5 1752.14 1190.5C1759.46 1190.47 1773.83 1191.33 1780.83 1192.9C1788.46 1194.6 1790.13 1196.57 1792.59 1199.49C1793.7 1200.81 1794.98 1202.32 1797.04 1204.09C1801.61 1208.01 1804.24 1204.87 1806.92 1201.66C1808.13 1200.21 1809.34 1198.76 1810.75 1197.92C1812.86 1196.68 1814.98 1196.41 1817.08 1196.14C1819.95 1195.77 1822.81 1195.41 1825.57 1192.59C1831.54 1186.48 1826.54 1167.98 1824.46 1160.32C1823.85 1158.08 1823.06 1155.85 1822.27 1153.62C1819.24 1145.05 1816.22 1136.54 1823.44 1127.99C1824.7 1126.49 1825.84 1125.18 1826.87 1123.99L1826.88 1123.98C1832.5 1117.49 1835.1 1114.49 1839.1 1103.63C1841.34 1097.56 1842.3 1091.19 1843.24 1084.91L1843.24 1084.91C1844.37 1077.38 1845.48 1069.99 1848.75 1063.4C1853.57 1053.71 1858.5 1063.33 1861.62 1069.41C1862.32 1070.79 1862.94 1071.99 1863.43 1072.74C1873.32 1087.6 1898.45 1096.45 1915.38 1099.71C1924.75 1101.5 1933.21 1099.69 1941.91 1097.83C1944.4 1097.29 1946.92 1096.76 1949.48 1096.3C1951.51 1095.93 1953.2 1095.87 1954.69 1095.82C1958.8 1095.67 1961.34 1095.57 1965.12 1089.35C1967.98 1084.63 1967.58 1079.83 1967.17 1074.86C1966.96 1072.37 1966.75 1069.84 1966.95 1067.27C1967.29 1062.85 1968.19 1059.81 1968.99 1057.08C1970.49 1052 1971.67 1047.98 1968.42 1038.05C1966.06 1030.85 1952.86 1008.89 1946.71 1004.94C1942.25 1002.07 1937.2 1002.6 1932.24 1003.13C1929.28 1003.45 1926.36 1003.76 1923.6 1003.35C1913.86 1001.9 1927.46 990.134 1930.05 987.955C1932.64 985.776 1943.89 976.683 1946.02 975.775C1950.51 973.849 1957.17 973.399 1958.43 979.411C1958.84 981.353 1959.53 986.391 1959.68 988.411C1959.81 990.255 1959.6 991.595 1959.42 992.763C1959.03 995.249 1958.76 996.952 1962.18 1001.07C1969.17 1009.47 1995.85 1025.91 2006.6 1027.61C2022.53 1030.15 2017.79 1020.46 2013.73 1012.14C2012.59 1009.81 2011.51 1007.59 2010.94 1005.78C2009.67 1001.69 2007.35 985.363 2011.9 983.589C2016.16 981.928 2019.15 984.198 2021.82 987.167C2025.71 991.492 2029.18 997.275 2032.75 1003.23C2039.73 1014.85 2047.09 1027.12 2058.72 1030.44C2065.64 1032.41 2068.44 1031.76 2072.85 1030.73C2074.5 1030.35 2076.36 1029.92 2078.75 1029.55C2085.45 1028.52 2092.45 1028.86 2099.41 1029.2C2106.93 1029.56 2114.4 1029.92 2121.38 1028.55C2123.07 1028.21 2133.41 1021.89 2134.26 1020.63C2136.58 1017.16 2137.2 1010.73 2133.04 1008.37C2129.3 1006.25 2125.64 1008.17 2121.74 1010.22C2118.03 1012.18 2114.1 1014.24 2109.67 1013.04C2105.39 1011.88 2102.03 1006.06 2099.7 1002.04C2098.57 1000.08 2097.68 998.549 2097.06 998.186C2094.38 996.634 2089.83 996.669 2084.98 996.706C2077.91 996.761 2070.17 996.821 2066.52 991.996C2061.94 985.942 2065.17 981.317 2069.15 976.268C2076.79 966.595 2088.44 960.799 2100.64 959.412C2113.29 957.957 2142.75 964.669 2155.93 968.189C2187.4 976.61 2210.05 988.962 2237.21 1003.77C2239.29 1004.91 2241.39 1006.05 2243.52 1007.21C2246.9 1009.04 2250.47 1010.62 2254.05 1012.2L2254.06 1012.2C2257.96 1013.92 2261.87 1015.64 2265.53 1017.7C2323.53 1050.2 2389.88 1119.02 2355.69 1190.55C2342.61 1217.9 2317.48 1243.67 2294.54 1263.22C2288.11 1268.68 2280.9 1274.05 2273.53 1279.53C2256.8 1291.97 2239.29 1305 2228.51 1321.07C2226.99 1323.33 2226.06 1326.01 2225.14 1328.63C2224.26 1331.17 2223.39 1333.65 2222.03 1335.68C2201.68 1366.11 2151.44 1373.17 2117.57 1370.65C2113.77 1370.37 2109.04 1369.38 2104.27 1368.39C2097.83 1367.05 2091.32 1365.7 2086.91 1366.03C2083.08 1366.32 2077.76 1368.1 2072.66 1369.81C2069.52 1370.87 2066.46 1371.9 2063.88 1372.53C2060.78 1373.28 2058.01 1373.76 2055.42 1374.21C2048.56 1375.39 2042.9 1376.37 2035.3 1381.76C2027.56 1387.25 2026.75 1392.04 2025.86 1397.34C2025.33 1400.45 2024.77 1403.73 2022.76 1407.43C2020.35 1411.88 2015.96 1414.78 2011.44 1416.78C2011.09 1418.22 2010.91 1420.9 2010.7 1424.03L2010.7 1424.03C2010.19 1431.66 2009.5 1441.94 2005.76 1443.24C1995.08 1446.96 1994.8 1429.74 1994.63 1418.95C1994.58 1416.07 1994.55 1413.66 1994.32 1412.21C1994.09 1410.68 1991.32 1402.13 1990.19 1401.93C1987.41 1401.44 1986.4 1403.54 1985.4 1405.61C1984.97 1406.5 1984.54 1407.38 1983.98 1408.05C1980.2 1412.53 1974.67 1413.78 1969.2 1415.02C1966.6 1415.61 1964.02 1416.2 1961.64 1417.13C1961.43 1418.38 1961.95 1418.71 1962.77 1419.23C1962.81 1419.26 1962.86 1419.29 1962.91 1419.32L1962.98 1419.37C1963.01 1419.39 1963.04 1419.41 1963.07 1419.43C1965.12 1420.74 1967.84 1421.34 1970.75 1421.98C1974.52 1422.82 1978.62 1423.72 1982.05 1426.34C1991.89 1433.86 1988.15 1454.07 1974.31 1451.87C1969.5 1451.1 1969.48 1448.98 1969.46 1446.12C1969.46 1445.09 1969.45 1443.97 1969.22 1442.78C1968.34 1438.28 1966.48 1433.84 1961.95 1432.06C1959.43 1432.7 1958.9 1434.57 1958.36 1436.49C1958.11 1437.35 1957.86 1438.22 1957.43 1439C1954.17 1444.77 1949.24 1443.31 1946.17 1442.4C1944.97 1442.04 1944.06 1441.77 1943.65 1442.06C1942.01 1444.22 1941.14 1447.04 1940.29 1449.81C1939.55 1452.19 1938.83 1454.54 1937.63 1456.38C1930.54 1467.33 1908.32 1465.28 1920.9 1446.45C1921.82 1445.08 1923.67 1443.18 1925.57 1441.24C1928.25 1438.49 1931.04 1435.63 1931.49 1433.97C1931.86 1432.55 1930.96 1430.82 1929.96 1428.91C1928.26 1425.66 1926.29 1421.91 1929.95 1418.35C1932.33 1416.04 1934.5 1416.65 1936.86 1417.32C1938.42 1417.76 1940.06 1418.23 1941.9 1417.88C1942.04 1414.46 1937.88 1412.1 1935.02 1411.18C1922.9 1407.25 1910.03 1413.68 1898.33 1419.54C1894.68 1421.37 1891.14 1423.14 1887.77 1424.52C1863.77 1434.37 1844.96 1436.15 1819.62 1429.67C1816.59 1428.89 1812.64 1427.36 1808.51 1425.77C1802.04 1423.26 1795.16 1420.6 1790.84 1420.46C1783.92 1420.23 1778.97 1422.76 1774.01 1425.3C1766.76 1429.01 1759.48 1432.74 1745.97 1427.9C1741.79 1426.4 1739.87 1424.83 1737.63 1423C1736.59 1422.15 1735.47 1421.23 1734.01 1420.24C1725.79 1414.65 1718.48 1420.1 1711.22 1425.51C1703.06 1431.6 1694.94 1437.65 1685.62 1427.95C1684.95 1427.86 1684.22 1428.75 1683.3 1429.88C1681.3 1432.33 1678.39 1435.89 1673.19 1432.87C1672 1432.17 1671.28 1431.23 1670.63 1430.38C1669.3 1428.65 1668.28 1427.31 1664.12 1429.27C1662.74 1429.93 1661.76 1432.94 1660.67 1436.3C1658.63 1442.58 1656.21 1450.05 1650 1445.5C1645.19 1441.98 1645.27 1436.23 1645.34 1431.03C1645.38 1428.18 1645.42 1425.5 1644.65 1423.44C1644.46 1422.91 1643.55 1422.38 1642.45 1421.73C1639.95 1420.26 1636.41 1418.19 1637.84 1414.11C1635.97 1414.43 1634.34 1415.44 1632.75 1416.44C1630.15 1418.06 1627.61 1419.65 1624.16 1418.16C1623.39 1417.83 1623.01 1417.24 1622.66 1416.69C1622.08 1415.78 1621.59 1415.01 1619.55 1415.8C1618.11 1416.37 1617.14 1417.76 1616.1 1419.25C1614.64 1421.35 1613.02 1423.66 1609.74 1424.24C1605.58 1424.97 1591.94 1421.71 1589.99 1417.42C1586.62 1410.01 1591.61 1407.96 1596.44 1405.99C1597.75 1405.45 1599.05 1404.92 1600.17 1404.28C1603.49 1402.4 1596.56 1396.22 1594.68 1395.19C1593.44 1394.5 1582.42 1391.04 1581.08 1390.98C1579.14 1390.91 1577.65 1391.39 1576.21 1391.86C1573.76 1392.65 1571.47 1393.39 1567.44 1391.23C1566.64 1390.8 1565.88 1390.06 1565.09 1389.3C1563.88 1388.13 1562.63 1386.93 1561.19 1386.77C1560.29 1386.66 1559.38 1387.02 1558.32 1387.45C1556.58 1388.14 1554.41 1389.01 1551.12 1388.29C1538.36 1385.51 1533.24 1368.32 1530.55 1357.38C1526 1338.83 1521.25 1313.69 1519.48 1294.75C1519.2 1291.67 1519.06 1287.32 1518.91 1282.39L1518.91 1282.38C1518.44 1267.55 1517.81 1247.46 1512.41 1240.66C1505.75 1232.25 1487.1 1219.37 1476.7 1216.7C1470.25 1215.05 1441.65 1211.18 1440.76 1220.44C1440.17 1226.49 1445.69 1229.63 1450.99 1232.64C1457.17 1236.15 1463.04 1239.49 1458.56 1247.08C1453.24 1256.08 1432.33 1245 1426.67 1239.93C1418.93 1232.99 1416.84 1227.6 1413.34 1218.56L1413.29 1218.4C1410.7 1211.71 1405.46 1209.48 1400.45 1207.34C1396.67 1205.73 1393.02 1204.17 1390.73 1200.79C1388.17 1197.04 1388.54 1194.49 1388.96 1191.52C1389.15 1190.16 1389.36 1188.7 1389.3 1186.99C1389.08 1181.1 1386.65 1170.34 1382.22 1166.27C1375.24 1159.88 1355.45 1147.61 1346.64 1143.88C1331.84 1137.6 1315.69 1133.47 1299.51 1129.33C1279.45 1124.2 1259.35 1119.07 1241.8 1109.81C1227.81 1102.42 1228.57 1090.81 1229.39 1078.36C1229.59 1075.23 1229.8 1072.05 1229.78 1068.86C1229.71 1058.53 1224.51 1055.96 1219.08 1053.28C1214.16 1050.85 1209.05 1048.33 1207.39 1039.84C1202.78 1016.14 1218.68 994.812 1240.76 987.837C1247.15 985.816 1253.58 986.717 1260.25 987.65C1265.99 988.453 1271.89 989.281 1278.09 988.284C1279.82 988.005 1282.22 986.664 1284.89 985.178C1291.77 981.345 1300.38 976.553 1303.38 986.608C1304.66 990.882 1304.69 994.594 1304.72 998.16C1304.76 1004.19 1304.8 1009.81 1310.92 1017.03C1319.99 1027.73 1329.42 1030.07 1339.53 1032.57C1344.96 1033.91 1350.58 1035.31 1356.46 1038.07C1361.72 1040.54 1364.35 1043.99 1366.92 1047.34C1369.5 1050.72 1372.01 1054.01 1377.06 1056.08C1388.25 1058.65 1399.48 1062.2 1410.72 1065.75C1425.36 1070.39 1440.04 1075.03 1454.74 1077.52C1455.72 1077.68 1457.11 1077.77 1458.69 1077.87C1464.54 1078.24 1473.07 1078.79 1473.9 1084.08C1474.12 1085.54 1473.68 1087.89 1473.2 1090.37C1472.47 1094.24 1471.68 1098.4 1473.3 1099.88L1473.3 1099.87Z" fill="#676BCC"/>
<path d="M1898.7 1436.23C1903.14 1440.31 1897.91 1453.65 1894.78 1458C1890.21 1464.36 1875.14 1478.51 1867.51 1469.97C1863.38 1465.36 1872.31 1447.94 1876.23 1443.99C1879.84 1440.33 1894.32 1432.18 1898.7 1436.21L1898.7 1436.23Z" fill="#676BCC"/>
<path d="M1912.41 1431.66C1930.47 1429.54 1911.46 1453.45 1904.38 1450.24C1899.42 1448 1906 1432.41 1912.41 1431.66Z" fill="#676BCC"/>
<path d="M1625.16 1435.36C1630.27 1433.65 1638.21 1435.49 1638.81 1441.73C1639.74 1451.3 1620.75 1447.26 1621.6 1440.05C1621.75 1438.69 1623.82 1435.81 1625.16 1435.36Z" fill="#676BCC"/>
<path d="M1959.86 1463.47C1968.43 1462.28 1968.59 1475.48 1960.86 1476.19C1953.59 1476.85 1951.46 1464.63 1959.86 1463.47Z" fill="#676BCC"/>
<path d="M1924.98 1476.03C1922.95 1477.62 1910.53 1477.88 1909.58 1475.47C1907.38 1469.87 1917.01 1468.38 1921.02 1469.13C1923.94 1469.69 1927.46 1474.1 1924.98 1476.03Z" fill="#676BCC"/>
<path d="M1944.39 1473.8C1949.4 1472.76 1948.47 1466.72 1945.04 1464.14C1944.14 1463.45 1942.87 1462.97 1941.73 1463.31C1936.27 1466.65 1936.66 1475.39 1944.39 1473.8Z" fill="#676BCC"/>
<path d="M1917.29 1490.7C1921.46 1498.87 1909.65 1504.28 1907.75 1494.6C1908.98 1490.58 1913.53 1488.46 1917.29 1490.7Z" fill="#676BCC"/>
<path d="M1876.84 1573.02C1882.88 1578.97 1868.08 1586.48 1868.09 1576.04C1868.1 1570.58 1873.93 1570.16 1876.84 1573.02Z" fill="#676BCC"/>
<path d="M1915.89 1561.62C1922.66 1561.22 1923.38 1570.55 1916.89 1571.23C1910.39 1571.92 1909.68 1561.98 1915.89 1561.62Z" fill="#676BCC"/>
<path d="M1954.73 1479.28C1961.34 1477.86 1961.68 1486.12 1956.93 1488.54C1950.3 1491.9 1948.35 1480.66 1954.73 1479.28Z" fill="#676BCC"/>
<path d="M1621.42 1423.11C1628.12 1421.65 1629 1431.44 1622.93 1432.4C1616.86 1433.35 1615.51 1424.39 1621.42 1423.11Z" fill="#676BCC"/>
<path d="M1611.36 1461.38C1616.33 1459.83 1618.88 1468.08 1614.7 1470.89C1607.38 1473.73 1606.51 1462.9 1611.36 1461.38Z" fill="#676BCC"/>
<path d="M1603.01 1438.7C1607.55 1438.11 1611.21 1446.62 1603.91 1447.3C1597.24 1447.93 1598.29 1439.33 1603.01 1438.7Z" fill="#676BCC"/>
<path d="M1888.34 1552.77C1893.18 1552.19 1895.12 1560.72 1890.15 1561.61C1883.96 1562.73 1883.4 1553.38 1888.34 1552.77Z" fill="#676BCC"/>
<path d="M1587.89 1439.74C1585.91 1437.88 1586.14 1433.08 1589.51 1432.45C1597.49 1430.97 1593.08 1444.6 1587.89 1439.74Z" fill="#676BCC"/>
<path d="M1629.15 1453.27C1635.05 1451.38 1635.05 1461.8 1629.01 1459.15C1626.02 1457.84 1626.54 1454.11 1629.15 1453.27Z" fill="#676BCC"/>
</svg>
