<svg width="3400" height="3680" viewBox="0 0 3400 3680" fill="none" xmlns="http://www.w3.org/2000/svg">
<path d="M1350.3 1549.87C1353.55 1552.85 1365.84 1547.86 1374.28 1544.43L1374.28 1544.43L1374.28 1544.43C1377.17 1543.26 1379.6 1542.27 1381.07 1541.85C1406.35 1534.56 1415.54 1541.07 1430.61 1551.74C1433.82 1554.02 1437.31 1556.49 1441.27 1559.05C1459.37 1570.76 1492.55 1584.62 1513.8 1587.78C1517.51 1588.33 1520.78 1588.49 1523.81 1588.63C1532.42 1589.06 1538.98 1589.38 1547.62 1598.35C1550.42 1601.26 1553.18 1604.52 1556 1607.84L1556 1607.85C1562.74 1615.79 1569.83 1624.15 1578.6 1629.13C1581.8 1630.95 1609.1 1641.61 1611.96 1641.92C1615.04 1642.28 1618.29 1641.78 1621.58 1641.28C1624.1 1640.89 1626.64 1640.5 1629.14 1640.5C1636.46 1640.47 1650.83 1641.33 1657.83 1642.9C1665.46 1644.6 1667.13 1646.57 1669.59 1649.49C1670.7 1650.81 1671.98 1652.32 1674.04 1654.09C1678.61 1658.01 1681.24 1654.87 1683.92 1651.66C1685.13 1650.21 1686.34 1648.76 1687.75 1647.92C1689.86 1646.68 1691.98 1646.41 1694.08 1646.14C1696.95 1645.77 1699.81 1645.41 1702.57 1642.59C1708.54 1636.48 1703.54 1617.98 1701.46 1610.32C1700.85 1608.08 1700.06 1605.85 1699.27 1603.62C1696.24 1595.05 1693.22 1586.54 1700.44 1577.99C1701.7 1576.49 1702.84 1575.18 1703.87 1573.99L1703.88 1573.98C1709.5 1567.49 1712.1 1564.49 1716.1 1553.63C1718.34 1547.56 1719.3 1541.19 1720.24 1534.91L1720.24 1534.91C1721.37 1527.38 1722.48 1519.99 1725.75 1513.4C1730.57 1503.71 1735.5 1513.33 1738.62 1519.41C1739.32 1520.79 1739.94 1521.99 1740.43 1522.74C1750.32 1537.6 1775.45 1546.45 1792.38 1549.71C1801.75 1551.5 1810.21 1549.69 1818.91 1547.83C1821.4 1547.29 1823.92 1546.76 1826.48 1546.3C1828.51 1545.93 1830.2 1545.87 1831.69 1545.82C1835.8 1545.67 1838.34 1545.57 1842.12 1539.35C1844.98 1534.63 1844.58 1529.83 1844.17 1524.86C1843.96 1522.37 1843.75 1519.84 1843.95 1517.27C1844.29 1512.85 1845.19 1509.81 1845.99 1507.08C1847.49 1502 1848.67 1497.98 1845.42 1488.05C1843.06 1480.85 1829.86 1458.89 1823.71 1454.94C1819.25 1452.07 1814.2 1452.6 1809.24 1453.13C1806.28 1453.45 1803.36 1453.76 1800.6 1453.35C1790.86 1451.9 1804.46 1440.13 1807.05 1437.96C1809.64 1435.78 1820.89 1426.68 1823.02 1425.78C1827.51 1423.85 1834.17 1423.4 1835.43 1429.41C1835.84 1431.35 1836.53 1436.39 1836.68 1438.41C1836.81 1440.26 1836.6 1441.6 1836.42 1442.76C1836.03 1445.25 1835.76 1446.95 1839.18 1451.07C1846.17 1459.47 1872.85 1475.91 1883.6 1477.61C1899.53 1480.15 1894.79 1470.46 1890.73 1462.14C1889.59 1459.81 1888.51 1457.59 1887.94 1455.78C1886.67 1451.69 1884.35 1435.36 1888.9 1433.59C1893.16 1431.93 1896.15 1434.2 1898.82 1437.17C1902.71 1441.49 1906.18 1447.27 1909.75 1453.23C1916.73 1464.85 1924.09 1477.12 1935.72 1480.44C1942.64 1482.41 1945.44 1481.76 1949.85 1480.73C1951.5 1480.35 1953.36 1479.92 1955.75 1479.55C1962.45 1478.52 1969.45 1478.86 1976.41 1479.2C1983.93 1479.56 1991.4 1479.92 1998.38 1478.55C2000.07 1478.21 2010.41 1471.89 2011.26 1470.63C2013.58 1467.16 2014.2 1460.73 2010.04 1458.37C2006.3 1456.25 2002.64 1458.17 1998.74 1460.22C1995.03 1462.18 1991.1 1464.24 1986.67 1463.04C1982.39 1461.88 1979.03 1456.06 1976.7 1452.04C1975.57 1450.08 1974.68 1448.55 1974.06 1448.19C1971.38 1446.63 1966.83 1446.67 1961.98 1446.71C1954.91 1446.76 1947.17 1446.82 1943.52 1442C1938.94 1435.94 1942.17 1431.32 1946.15 1426.27C1953.79 1416.59 1965.44 1410.8 1977.64 1409.41C1990.29 1407.96 2019.75 1414.67 2032.93 1418.19C2064.4 1426.61 2087.05 1438.96 2114.21 1453.77C2116.29 1454.91 2118.39 1456.05 2120.52 1457.21C2123.9 1459.04 2127.47 1460.62 2131.05 1462.2L2131.06 1462.2C2134.96 1463.92 2138.87 1465.64 2142.53 1467.7C2200.53 1500.2 2266.88 1569.02 2232.69 1640.55C2219.61 1667.9 2194.48 1693.67 2171.54 1713.22C2165.11 1718.68 2157.9 1724.05 2150.53 1729.53C2133.8 1741.97 2116.29 1755 2105.51 1771.07C2103.99 1773.33 2103.06 1776.01 2102.14 1778.63C2101.26 1781.17 2100.39 1783.65 2099.03 1785.68C2078.68 1816.11 2028.44 1823.17 1994.57 1820.65C1990.77 1820.37 1986.04 1819.38 1981.27 1818.39C1974.83 1817.05 1968.32 1815.7 1963.91 1816.03C1960.08 1816.32 1954.76 1818.1 1949.66 1819.81C1946.52 1820.87 1943.46 1821.9 1940.88 1822.53C1937.78 1823.28 1935.01 1823.76 1932.42 1824.21C1925.56 1825.39 1919.9 1826.37 1912.3 1831.76C1904.56 1837.25 1903.75 1842.04 1902.86 1847.34C1902.33 1850.45 1901.77 1853.73 1899.76 1857.43C1897.35 1861.88 1892.96 1864.78 1888.44 1866.78C1888.09 1868.22 1887.91 1870.9 1887.7 1874.03L1887.7 1874.03C1887.19 1881.66 1886.5 1891.94 1882.76 1893.24C1872.08 1896.96 1871.8 1879.74 1871.63 1868.95C1871.58 1866.07 1871.55 1863.66 1871.32 1862.21C1871.09 1860.68 1868.32 1852.13 1867.19 1851.93C1864.41 1851.44 1863.4 1853.54 1862.4 1855.61C1861.97 1856.5 1861.54 1857.38 1860.98 1858.05C1857.2 1862.53 1851.67 1863.78 1846.2 1865.02C1843.6 1865.61 1841.02 1866.2 1838.64 1867.13C1838.43 1868.38 1838.95 1868.71 1839.77 1869.23C1839.81 1869.26 1839.86 1869.29 1839.91 1869.32L1839.98 1869.37C1840.01 1869.39 1840.04 1869.41 1840.07 1869.43C1842.12 1870.74 1844.84 1871.34 1847.75 1871.98C1851.52 1872.82 1855.62 1873.72 1859.05 1876.34C1868.89 1883.86 1865.15 1904.07 1851.31 1901.87C1846.5 1901.1 1846.48 1898.98 1846.46 1896.12C1846.46 1895.09 1846.45 1893.97 1846.22 1892.78C1845.34 1888.28 1843.48 1883.84 1838.95 1882.06C1836.43 1882.7 1835.9 1884.57 1835.36 1886.49C1835.11 1887.35 1834.86 1888.22 1834.43 1889C1831.17 1894.77 1826.24 1893.31 1823.17 1892.4C1821.97 1892.04 1821.06 1891.77 1820.65 1892.06C1819.01 1894.22 1818.14 1897.04 1817.29 1899.81C1816.55 1902.19 1815.83 1904.54 1814.63 1906.38C1807.54 1917.33 1785.32 1915.28 1797.9 1896.45C1798.82 1895.08 1800.67 1893.18 1802.57 1891.24C1805.25 1888.49 1808.04 1885.63 1808.49 1883.97C1808.86 1882.55 1807.96 1880.82 1806.96 1878.91C1805.26 1875.66 1803.29 1871.91 1806.95 1868.35C1809.33 1866.04 1811.5 1866.65 1813.86 1867.32C1815.42 1867.76 1817.06 1868.23 1818.9 1867.88C1819.04 1864.46 1814.88 1862.1 1812.02 1861.18C1799.9 1857.25 1787.03 1863.68 1775.33 1869.54C1771.68 1871.37 1768.14 1873.14 1764.77 1874.52C1740.77 1884.37 1721.96 1886.15 1696.62 1879.67C1693.59 1878.89 1689.64 1877.36 1685.51 1875.77C1679.04 1873.26 1672.16 1870.6 1667.84 1870.46C1660.92 1870.23 1655.97 1872.76 1651.01 1875.3C1643.76 1879.01 1636.48 1882.74 1622.97 1877.9C1618.79 1876.4 1616.87 1874.83 1614.63 1873C1613.59 1872.15 1612.47 1871.23 1611.01 1870.24C1602.79 1864.65 1595.48 1870.1 1588.22 1875.51C1580.06 1881.6 1571.94 1887.65 1562.62 1877.95C1561.95 1877.86 1561.22 1878.75 1560.3 1879.88C1558.3 1882.33 1555.39 1885.89 1550.19 1882.87C1549 1882.17 1548.28 1881.23 1547.63 1880.38C1546.3 1878.65 1545.28 1877.31 1541.12 1879.27C1539.74 1879.93 1538.76 1882.94 1537.67 1886.3C1535.63 1892.58 1533.21 1900.05 1527 1895.5C1522.19 1891.98 1522.27 1886.23 1522.34 1881.03C1522.38 1878.18 1522.42 1875.5 1521.65 1873.44C1521.46 1872.91 1520.55 1872.38 1519.45 1871.73C1516.95 1870.26 1513.41 1868.19 1514.84 1864.11C1512.97 1864.43 1511.34 1865.44 1509.75 1866.44C1507.15 1868.06 1504.61 1869.65 1501.16 1868.16C1500.39 1867.83 1500.01 1867.24 1499.66 1866.69C1499.08 1865.78 1498.59 1865.01 1496.55 1865.8C1495.11 1866.37 1494.14 1867.76 1493.1 1869.25C1491.64 1871.35 1490.02 1873.66 1486.74 1874.24C1482.58 1874.97 1468.94 1871.71 1466.99 1867.42C1463.62 1860.01 1468.61 1857.96 1473.44 1855.99C1474.75 1855.45 1476.05 1854.92 1477.17 1854.28C1480.49 1852.4 1473.56 1846.22 1471.68 1845.19C1470.44 1844.5 1459.42 1841.04 1458.08 1840.98C1456.14 1840.91 1454.65 1841.39 1453.21 1841.86C1450.76 1842.65 1448.47 1843.39 1444.44 1841.23C1443.64 1840.8 1442.88 1840.06 1442.09 1839.3C1440.88 1838.13 1439.63 1836.93 1438.19 1836.77C1437.29 1836.66 1436.38 1837.02 1435.32 1837.45C1433.58 1838.14 1431.41 1839.01 1428.12 1838.29C1415.36 1835.51 1410.24 1818.32 1407.55 1807.38C1403 1788.83 1398.25 1763.69 1396.48 1744.75C1396.2 1741.67 1396.06 1737.32 1395.91 1732.39L1395.91 1732.38C1395.44 1717.55 1394.81 1697.46 1389.41 1690.66C1382.75 1682.25 1364.1 1669.37 1353.7 1666.7C1347.25 1665.05 1318.65 1661.18 1317.76 1670.44C1317.17 1676.49 1322.69 1679.63 1327.99 1682.64C1334.17 1686.15 1340.04 1689.49 1335.56 1697.08C1330.24 1706.08 1309.33 1695 1303.67 1689.93C1295.93 1682.99 1293.84 1677.6 1290.34 1668.56L1290.29 1668.4C1287.7 1661.71 1282.46 1659.48 1277.45 1657.34C1273.67 1655.73 1270.02 1654.17 1267.73 1650.79C1265.17 1647.04 1265.54 1644.49 1265.96 1641.52C1266.15 1640.16 1266.36 1638.7 1266.3 1636.99C1266.08 1631.1 1263.65 1620.34 1259.22 1616.27C1252.24 1609.88 1232.45 1597.61 1223.64 1593.88C1208.84 1587.6 1192.69 1583.47 1176.51 1579.33C1156.45 1574.2 1136.35 1569.07 1118.8 1559.81C1104.81 1552.42 1105.57 1540.81 1106.39 1528.36C1106.59 1525.23 1106.8 1522.05 1106.78 1518.86C1106.71 1508.53 1101.51 1505.96 1096.08 1503.28C1091.16 1500.85 1086.05 1498.33 1084.39 1489.84C1079.78 1466.14 1095.68 1444.81 1117.76 1437.84C1124.15 1435.82 1130.58 1436.72 1137.25 1437.65C1142.99 1438.45 1148.89 1439.28 1155.09 1438.28C1156.82 1438.01 1159.22 1436.66 1161.89 1435.18C1168.77 1431.34 1177.38 1426.55 1180.38 1436.61C1181.66 1440.88 1181.69 1444.59 1181.72 1448.16C1181.76 1454.19 1181.8 1459.81 1187.92 1467.03C1196.99 1477.73 1206.42 1480.07 1216.53 1482.57C1221.96 1483.91 1227.58 1485.31 1233.46 1488.07C1238.72 1490.54 1241.35 1493.99 1243.92 1497.34C1246.5 1500.72 1249.01 1504.01 1254.06 1506.08C1265.25 1508.65 1276.48 1512.2 1287.72 1515.75C1302.36 1520.39 1317.04 1525.03 1331.74 1527.52C1332.72 1527.68 1334.11 1527.77 1335.69 1527.87C1341.54 1528.24 1350.07 1528.79 1350.9 1534.08C1351.12 1535.54 1350.68 1537.89 1350.2 1540.37C1349.47 1544.24 1348.68 1548.4 1350.3 1549.88L1350.3 1549.87Z" fill="#676BCC"/>
<path d="M1775.7 1886.23C1780.14 1890.31 1774.91 1903.65 1771.78 1908C1767.21 1914.36 1752.14 1928.51 1744.51 1919.97C1740.38 1915.36 1749.31 1897.94 1753.23 1893.99C1756.84 1890.33 1771.32 1882.18 1775.7 1886.21L1775.7 1886.23Z" fill="#676BCC"/>
<path d="M1789.41 1881.66C1807.47 1879.54 1788.46 1903.45 1781.38 1900.24C1776.42 1898 1783 1882.41 1789.41 1881.66Z" fill="#676BCC"/>
<path d="M1502.16 1885.36C1507.27 1883.65 1515.21 1885.49 1515.81 1891.73C1516.74 1901.3 1497.75 1897.26 1498.6 1890.05C1498.75 1888.69 1500.82 1885.81 1502.16 1885.36Z" fill="#676BCC"/>
<path d="M1836.86 1913.47C1845.43 1912.28 1845.59 1925.48 1837.86 1926.19C1830.59 1926.85 1828.46 1914.63 1836.86 1913.47Z" fill="#676BCC"/>
<path d="M1801.98 1926.03C1799.95 1927.62 1787.53 1927.88 1786.58 1925.47C1784.38 1919.87 1794.01 1918.38 1798.02 1919.13C1800.94 1919.69 1804.46 1924.1 1801.98 1926.03Z" fill="#676BCC"/>
<path d="M1821.39 1923.8C1826.4 1922.76 1825.47 1916.72 1822.04 1914.14C1821.14 1913.45 1819.87 1912.97 1818.73 1913.31C1813.27 1916.65 1813.66 1925.39 1821.39 1923.8Z" fill="#676BCC"/>
<path d="M1794.29 1940.7C1798.46 1948.87 1786.65 1954.28 1784.75 1944.6C1785.98 1940.58 1790.53 1938.46 1794.29 1940.7Z" fill="#676BCC"/>
<path d="M1753.84 2023.02C1759.88 2028.97 1745.08 2036.48 1745.09 2026.04C1745.1 2020.58 1750.93 2020.16 1753.84 2023.02Z" fill="#676BCC"/>
<path d="M1792.89 2011.62C1799.66 2011.22 1800.38 2020.55 1793.89 2021.23C1787.39 2021.92 1786.68 2011.98 1792.89 2011.62Z" fill="#676BCC"/>
<path d="M1831.73 1929.28C1838.34 1927.86 1838.68 1936.12 1833.93 1938.54C1827.3 1941.9 1825.35 1930.66 1831.73 1929.28Z" fill="#676BCC"/>
<path d="M1498.42 1873.11C1505.12 1871.65 1506 1881.44 1499.93 1882.4C1493.86 1883.35 1492.51 1874.39 1498.42 1873.11Z" fill="#676BCC"/>
<path d="M1488.36 1911.38C1493.33 1909.83 1495.88 1918.08 1491.7 1920.89C1484.38 1923.73 1483.51 1912.9 1488.36 1911.38Z" fill="#676BCC"/>
<path d="M1480.01 1888.7C1484.55 1888.11 1488.21 1896.62 1480.91 1897.3C1474.24 1897.93 1475.29 1889.33 1480.01 1888.7Z" fill="#676BCC"/>
<path d="M1765.34 2002.77C1770.18 2002.19 1772.12 2010.72 1767.15 2011.61C1760.96 2012.73 1760.4 2003.38 1765.34 2002.77Z" fill="#676BCC"/>
<path d="M1464.89 1889.74C1462.91 1887.88 1463.14 1883.08 1466.51 1882.45C1474.49 1880.97 1470.08 1894.6 1464.89 1889.74Z" fill="#676BCC"/>
<path d="M1506.15 1903.27C1512.05 1901.38 1512.05 1911.8 1506.01 1909.15C1503.02 1907.84 1503.54 1904.11 1506.15 1903.27Z" fill="#676BCC"/>
</svg>
