<svg width="3400" height="3680" viewBox="0 0 3400 3680" fill="none" xmlns="http://www.w3.org/2000/svg">
<path d="M1984.01 1811.46C1978.63 1810.78 1976.86 1815.74 1973.32 1818.27C1967.93 1822.12 1946.33 1837.77 1944.43 1842.97C1943.67 1845.06 1944.49 1847.28 1943.97 1848.84C1942.98 1851.8 1939.92 1854.17 1940.89 1857.38C1943.38 1865.67 1960.54 1855.61 1960.23 1874.68C1960.07 1884.08 1947.33 1905.34 1938.7 1909.83C1930.76 1913.97 1927.76 1911.58 1920.92 1912.34C1901.14 1914.54 1888.4 1927.68 1872.15 1934.88C1868.26 1936.61 1851.94 1940.88 1850.36 1944.1C1850.02 1944.77 1851.45 1946.57 1851.21 1947.95C1849.54 1957.76 1829.68 1974.05 1830.87 1951.74C1831.09 1947.9 1836.03 1935.48 1827.37 1941.07C1822.21 1944.39 1822.37 1958.82 1822.9 1964.25C1823.33 1968.59 1825.85 1969.29 1824.44 1974.72C1824.08 1976.09 1812.27 1989.46 1809.75 1993.58C1803.88 2003.08 1800.63 2014.63 1794.2 2023.4C1778.87 2044.27 1757 2059.52 1736.63 2074.81C1731.32 2078.77 1726.97 2086.88 1718.54 2086.53C1707.18 2086.06 1711.11 2072.28 1714.07 2065.67C1716.31 2060.67 1731.98 2043.59 1725.44 2039.1C1720.97 2036.05 1694.2 2058.05 1687.04 2059.63C1682.54 2060.61 1669.05 2061.96 1671.01 2053.91C1672.09 2049.45 1684.64 2043.54 1688.86 2039.67C1697.5 2031.72 1705.11 2021.09 1714.59 2012.94C1721.41 2007.1 1740.44 1996.16 1744.24 1991.65C1746.97 1988.4 1761.66 1953.75 1762.58 1949.07C1767.98 1921.98 1732.58 1945.9 1724.5 1953.54C1717.54 1960.13 1710.53 1975.13 1698.38 1965.08C1689.27 1957.53 1700.32 1935.25 1697.87 1932.99C1687.7 1933.88 1678.45 1938.58 1669.78 1943.6C1668.72 1944.21 1668.62 1946.03 1667.68 1946.35C1666.12 1946.87 1664.02 1946.02 1661.83 1947.05C1660.08 1947.86 1654.96 1956.18 1649.13 1958.76C1645.94 1960.17 1642.88 1960.03 1640.1 1961.24C1632.81 1964.45 1628.12 1972.32 1618.3 1971.58C1613.51 1971.21 1598.83 1962.24 1594.73 1958.98C1587.95 1953.58 1581.96 1937.36 1575.03 1934.41C1573.8 1933.89 1572.62 1935.33 1570.77 1934.23C1570.35 1933.97 1564.28 1927.97 1563.69 1927.25C1557.34 1919.66 1554.86 1906.66 1541.63 1917.07C1533.99 1923.07 1536.71 1930.59 1539.1 1939.11C1540.38 1943.64 1551.9 1963.99 1541.93 1965.27C1537.34 1965.86 1529.58 1949.18 1528.28 1944.93C1525.58 1936.09 1527.73 1924.85 1521.37 1918.29C1518.89 1915.74 1516.36 1917.33 1514.75 1911.74C1513.06 1905.86 1516.84 1904.38 1516.4 1901.34C1515.27 1893.56 1506.73 1892.57 1502.48 1889.93C1498.99 1887.76 1496.65 1881.87 1493.53 1879.13C1482.47 1869.41 1445.39 1872.75 1435.84 1856.6C1434.33 1854.05 1432.73 1847.1 1430.95 1846.26C1425.83 1843.88 1421.73 1854 1413.7 1849.31C1396.62 1839.31 1414.57 1814.74 1413.34 1802C1412.72 1795.6 1408.44 1791.21 1406.58 1785.89C1404.55 1780.01 1402.3 1772.67 1400.95 1766.62C1398.97 1757.73 1398.14 1743.28 1399.5 1734.26C1400.04 1730.73 1400.87 1726.32 1405.21 1726.89C1412.64 1727.84 1408.79 1752.92 1419.67 1755.22C1435.67 1758.59 1459.43 1758.54 1475.29 1754.71C1484.4 1752.52 1497.85 1744.83 1506.25 1745.62C1512.67 1746.23 1516.66 1752.38 1522.11 1754.82C1524.93 1756.09 1530.17 1756.35 1532.05 1757.74C1533.78 1759.01 1533.36 1761.05 1535.27 1762.05C1546.78 1768 1594.32 1765.93 1609.4 1766.86C1640.5 1768.78 1666.6 1774.73 1697.85 1766.57C1719.16 1761.01 1738.61 1751.55 1761.78 1753.51C1765.6 1753.83 1768.53 1756.16 1772.04 1755.89C1788.12 1754.6 1798.48 1747.89 1812.32 1743.43C1824.29 1739.57 1838.57 1739.14 1850.6 1734.17L1835.26 1731.74C1825.58 1728.95 1812.86 1721.72 1817.54 1709.47C1821.38 1699.37 1840.53 1706.69 1847.24 1707.14C1869.62 1708.63 1885.46 1705.19 1901.43 1689.63C1908.78 1682.47 1907.46 1677.2 1918.78 1669.6C1947.39 1650.42 1979.64 1627.98 2014.78 1644.35C2040.61 1656.36 2002.4 1677.38 2002.75 1685.92C2002.91 1690.21 2019.36 1688.76 2022.89 1688.28C2041.73 1685.68 2046.47 1654.52 2073.12 1656.45C2090.79 1657.73 2118.21 1672.47 2120.89 1691.62C2125.82 1726.78 2085.16 1766.74 2062.43 1789.79C2049.26 1803.13 2019.09 1835.03 2000.35 1836.2C1987.4 1837 1981.94 1822.21 1983.98 1811.52L1984.01 1811.46Z" fill="#D663C6"/>
</svg>
