<svg width="3645" height="2779" viewBox="0 0 3645 2779" fill="none" xmlns="http://www.w3.org/2000/svg">
<path d="M2107.01 1361.46C2101.63 1360.78 2099.86 1365.74 2096.32 1368.27C2090.93 1372.12 2069.33 1387.77 2067.43 1392.97C2066.67 1395.06 2067.49 1397.28 2066.97 1398.84C2065.98 1401.8 2062.92 1404.17 2063.89 1407.38C2066.38 1415.67 2083.54 1405.61 2083.23 1424.68C2083.07 1434.08 2070.33 1455.34 2061.7 1459.83C2053.76 1463.97 2050.76 1461.58 2043.92 1462.34C2024.14 1464.54 2011.4 1477.68 1995.15 1484.88C1991.26 1486.61 1974.94 1490.88 1973.36 1494.1C1973.02 1494.77 1974.45 1496.57 1974.21 1497.95C1972.54 1507.76 1952.68 1524.05 1953.87 1501.74C1954.09 1497.9 1959.03 1485.48 1950.37 1491.07C1945.21 1494.39 1945.37 1508.82 1945.9 1514.25C1946.33 1518.59 1948.85 1519.29 1947.44 1524.72C1947.08 1526.09 1935.27 1539.46 1932.75 1543.58C1926.88 1553.08 1923.63 1564.63 1917.2 1573.4C1901.87 1594.27 1880 1609.52 1859.63 1624.81C1854.32 1628.77 1849.97 1636.88 1841.54 1636.53C1830.18 1636.06 1834.11 1622.28 1837.07 1615.67C1839.31 1610.67 1854.98 1593.59 1848.44 1589.1C1843.97 1586.05 1817.2 1608.05 1810.04 1609.63C1805.54 1610.61 1792.05 1611.96 1794.01 1603.91C1795.09 1599.45 1807.64 1593.54 1811.86 1589.67C1820.5 1581.72 1828.11 1571.09 1837.59 1562.94C1844.41 1557.1 1863.44 1546.16 1867.24 1541.65C1869.97 1538.4 1884.66 1503.75 1885.58 1499.07C1890.98 1471.98 1855.58 1495.9 1847.5 1503.54C1840.54 1510.13 1833.53 1525.13 1821.38 1515.08C1812.27 1507.53 1823.32 1485.25 1820.87 1482.99C1810.7 1483.88 1801.45 1488.58 1792.78 1493.6C1791.72 1494.21 1791.62 1496.03 1790.68 1496.35C1789.12 1496.87 1787.02 1496.02 1784.83 1497.05C1783.08 1497.86 1777.96 1506.18 1772.13 1508.76C1768.94 1510.17 1765.88 1510.03 1763.1 1511.24C1755.81 1514.45 1751.12 1522.32 1741.3 1521.58C1736.51 1521.21 1721.83 1512.24 1717.73 1508.98C1710.95 1503.58 1704.96 1487.36 1698.03 1484.41C1696.8 1483.89 1695.62 1485.33 1693.77 1484.23C1693.35 1483.97 1687.28 1477.97 1686.69 1477.25C1680.34 1469.66 1677.86 1456.66 1664.63 1467.07C1656.99 1473.07 1659.71 1480.59 1662.1 1489.11C1663.38 1493.64 1674.9 1513.99 1664.93 1515.27C1660.34 1515.86 1652.58 1499.18 1651.28 1494.93C1648.58 1486.09 1650.73 1474.85 1644.37 1468.29C1641.89 1465.74 1639.36 1467.33 1637.75 1461.74C1636.06 1455.86 1639.84 1454.38 1639.4 1451.34C1638.27 1443.56 1629.73 1442.57 1625.48 1439.93C1621.99 1437.76 1619.65 1431.87 1616.53 1429.13C1605.47 1419.41 1568.39 1422.75 1558.84 1406.6C1557.33 1404.05 1555.73 1397.1 1553.95 1396.26C1548.83 1393.88 1544.73 1404 1536.7 1399.31C1519.62 1389.31 1537.57 1364.74 1536.34 1352C1535.72 1345.6 1531.44 1341.21 1529.58 1335.89C1527.55 1330.01 1525.3 1322.67 1523.95 1316.62C1521.97 1307.73 1521.14 1293.28 1522.5 1284.26C1523.04 1280.73 1523.87 1276.32 1528.21 1276.89C1535.64 1277.84 1531.79 1302.92 1542.67 1305.22C1558.67 1308.59 1582.43 1308.54 1598.29 1304.71C1607.4 1302.52 1620.85 1294.83 1629.25 1295.62C1635.67 1296.23 1639.66 1302.38 1645.11 1304.82C1647.93 1306.09 1653.17 1306.35 1655.05 1307.74C1656.78 1309.01 1656.36 1311.05 1658.27 1312.05C1669.78 1318 1717.32 1315.93 1732.4 1316.86C1763.5 1318.78 1789.6 1324.73 1820.85 1316.57C1842.16 1311.01 1861.61 1301.55 1884.78 1303.51C1888.6 1303.83 1891.53 1306.16 1895.04 1305.89C1911.12 1304.6 1921.48 1297.89 1935.32 1293.43C1947.29 1289.57 1961.57 1289.14 1973.6 1284.17L1958.26 1281.74C1948.58 1278.95 1935.86 1271.72 1940.54 1259.47C1944.38 1249.37 1963.53 1256.69 1970.24 1257.14C1992.62 1258.63 2008.46 1255.19 2024.43 1239.63C2031.78 1232.47 2030.46 1227.2 2041.78 1219.6C2070.39 1200.42 2102.64 1177.98 2137.78 1194.35C2163.61 1206.36 2125.4 1227.38 2125.75 1235.92C2125.91 1240.21 2142.36 1238.76 2145.89 1238.28C2164.73 1235.68 2169.47 1204.52 2196.12 1206.45C2213.79 1207.73 2241.21 1222.47 2243.89 1241.62C2248.82 1276.78 2208.16 1316.74 2185.43 1339.79C2172.26 1353.13 2142.09 1385.03 2123.35 1386.2C2110.4 1387 2104.94 1372.21 2106.98 1361.52L2107.01 1361.46Z" fill="#D663C6"/>
</svg>
