<svg xmlns="http://www.w3.org/2000/svg" width="3400" height="3680"><path d="M1414.82 859.29c9.38 9.62 20.97 18.89 31.82 26.48 8.27 5.14 18.36 3.48 27.54 5.4 44.91 12.89 46.33-21.57 103.3.71 19.15 4.79 21.71 22.68 27.36 38.67 11.69 28.14 37.19 63.92 62.12 81.57 12.05 8.67 26.76 12.12 38.09 22.21 15.16 12.53 19.59 33.02 32.81 46 16.67 17.63 47.25 11.99 60.73 31.84 3.63 4.78 6.78 14.18.54 17.85-6.25 3.19-14.01.78-20.78 1.9-8.53 1.06-18.17 5.29-23.83 11.44-12.59 14.2-2.95 31.35 12.66 37.37 9.17 4.14 17.85 6.32 26.45 12.6 9.04 6.77 34.73 23.36 22.29 34.76-5.48 5.35-38.38-2.64-30.3 13.06 5.59 6.91 15.74 10.07 22.55 15.64 11.75 8.88 23.22 23.61 35.77 31.82 65.94 28.62 135.21 48.96 200.27 80.06 78.01 38.94 148.27 112.23 199.99 177.21 12.52 16.24 22.24 36.99 25.17 57.04 12.67 129.74-114.27 229.47-218.36 279.54-23.44 10.33-48.46 16.77-71.88 27.22-46.93 21.04-86.5 35.06-138.6 24.55-11.54-3.8-23.09-6.53-35.33-6.43-13.6-.87-27.06-4.36-40.57-1.53-12.81 2.2-22.81 12.27-30.41 22.39-5.82 8.09-8.63 16.82-17.82 20.39-18.58 5.19-17.36 12.03-27.77 24.77-5.5 5.55-13.64 6.79-20.77 9.1-8.91 3.35-18.8 7.13-28.79 6.84-9.57.39-19.18 1.82-28.84.84-22.06-3.39-40.73 18.16-62.9 9.63-18.32-5.27-20.88-27.91-14.65-43.29 6.45-12.89 19-21.6 25.16-34.63 13.26-24.62-21.75-16.53-14.97-50.76.73-6.56 1.59-12.91 3.41-19.36 3.23-8.95 6.97-23.41-7.92-19.89-8.71 3-17.87 9.54-27.47 4.65-4.67-1.89-7.98-4.44-12.07-4.85-7.99.13-14.79 7.54-19.27 13.66-4.83 9.45-5.82 22.55-3.03 32.95 3 8.54 8.72 16.1 8.61 25.54.6 14.2-7.47 29.76-23.8 25-13.92-3.61-28.07-12.12-37.79-22.9-6.79-8.54-9.89-19.7-12.81-30.14-3.38-10.98-3.41-20.74-7.13-30.97-3.17-8.08-12.39-6.78-13.42 1.23-.98 9.63 5.66 20.21 5.05 29.72-.45 12.61-4.46 29.91-19.76 29.4-24.74 3.14-30.19-16.13-44.23-30.93-10.72-8.23-16.52-20.37-19.63-33.18-2.26-6.78-5.6-12.99-7.75-20.49-2.69-10.38-4.62-22.24-15.18-27.56-4.74-2.94-9.57-6.06-12.97-10.58-5.73-8.27-10.92-17.97-22.13-16.68-5.4.17-12.93 1.87-17.18-1.78-5.55-5.73 3.94-15.92-2.26-20.77-5.05-2.06-17.16-2.6-23.3-.79-4.66 2.11-8.82 7.29-14.82 8.14-17.07.34-12.95-3.2-22.28 12.11-16.06 17.48-42.26-13.68-58.47-15.58-7.49 2.7-5.25 16.65-10.05 22.33-7.46 8.75-21.51-1.04-30.11-4.81-9.37-4.85-12.72-14.86-21.23-20.75-5.69-4.07-12.98-4.63-19.19-7.51-5.09-2.3-9.56-5.89-14.33-8.8-22.11-10.81-18.23-16.22-29.67-34.29-4.12-5.22-10.76-6.96-15.86-10.92-5.8-4.5-9.98-12.76-10.15-20.13-.23-6.91 3.23-14.22.54-20.97-1.98-6.26-10.22-9.33-14.28-3.88-5.65 7.99-2.6 20.15-9.61 28.01-9.36 12.19-24.18 1.55-27.09 21.24-3.94 10.63-5.34 24.9-13.44 32.95-10.26 8.34-27.64 1.95-32.75-9.52-4.77-13.15-.21-28.46-8-41.81-7.06-18.29-10.93-22.52-25.87-34.75-4.68-4.53-8.37-9.88-12.92-14.52-8.48-8.37-19.21-14.8-27.15-23.85-12.43-13.34-19.37-29.09-26.14-45.91-6.58-17.49-16.3-35.83-18.49-54.76-.91-8.69-.8-18.68-1.3-27.85-1.94-38.47-19.83-77.06-17.24-116.15 1.71-14.63 7.03-29.25 3.54-44.15-6.93-28.23-15.99-36.43-2.83-66.75 3.29-11.16 3.09-24.75 8.33-35.66 4.04-9.12 10.81-18.06 15.96-26.96 3.87-5.93 5.43-14.54 11.39-18.62 12.29-2.89 16.83 14.1 21.62 22.61 6.33 16.66 25.81 17.19 31.95 1.1 2.27-6.98.3-14.58-.4-21.69-1.01-8.75-1.1-18.48-.54-27.68 1.2-18.24 11.43-13.8 20.33-2.52 4.55 5.26 10.49 9.03 17.23 10.93 27.29 6.83 33.98 6.17 46.8 32.3 11.53 18.18 30.55 30.05 42.43 47.86 5.58 10.67 11.84 23.89 15.71 34.69 2.98 8.4 5.6 15.75 10.89 23.6.92 2.61 23.47 32.36 20.6 16.86-15.68-31.6-18.09-26.32-18.75-64.06-1.16-8.66-5.58-16.66-9.03-24.67-9.46-21.77-14.35-43.25-32.96-59.99-16.78-18.2-48.44-17.9-59.3-41.81-5.18-14.47 7.22-29.97 14.69-42.16 6.5-7.94 16.04-13.74 18.32-24.44 12.1-33.8-20.44-56.52-5.87-70.65 9.35-7.41 21.4.44 31.98-1.97 7.81-1.47 16.72-5.49 24.69-8.06 28.39-10.5 59.75-2.35 84.25 13.84 29.91 20.72 49.65 30.09 80.71 5.19 15.62-14.71 26.6-36.36 48.31-43.53 22.31-7.84 43.9-17.43 65.6-26.64 2.55-1.64 8.52-3.42 6.57-6.43-2.82-3.02-9.04-4.45-13.42-6.01-7.24-2.38-14.31-5.23-20.85-9.05-12.32-6.92-20.5-17.07-29.19-28.21-9.27-10.05-18.72-26.43.35-32.81 25.12-8.08 32.49.31 46.36 20.24 13.06 18.43 36.14 20.69 54.22 32.24 11.46 8.28 34.79 21.24 41.03.74 1.15-11.02-2.19-23.82-.85-35.33.22-8.84-.66-18.81 6.07-25.54 9.62-9.04 27.52-13.5 41.09-11.99 20.72 3.36 35.74 15.88 46.71 33.44l.12.14Z" style="fill:#68b6bc"/></svg>