<svg width="3400" height="3680" viewBox="0 0 3400 3680" fill="none" xmlns="http://www.w3.org/2000/svg">
<path d="M1708.72 2126.85C1689.59 2146.7 1659.1 2149.82 1633.43 2142.44C1607.75 2135.07 1600.69 2124.73 1581.5 2109.45C1574.34 2103.75 1553.72 2089.84 1546.53 2100.12C1542.26 2106.24 1544.71 2107.91 1534.92 2109.21C1519.31 2111.24 1497.63 2107.68 1481.39 2107.98C1470.63 2108.18 1461.44 2109.83 1450.29 2108.19C1427.38 2104.81 1419.5 2097.18 1417.02 2073.88C1416.51 2069.11 1417.41 2059.75 1416.15 2055.97C1415.31 2053.46 1410.31 2052.31 1408.47 2049.69C1400.04 2037.67 1420.68 2037.86 1426.69 2035.26C1430.11 2033.77 1434.82 2025.38 1435.38 2021.9C1435.95 2018.43 1434.4 2007.66 1437.37 2005.5C1441.44 2002.56 1455.98 2011.74 1459.4 2009.27C1468.33 2002.85 1466.79 1984.34 1470.91 1974.67C1473.8 1967.86 1478.48 1966.49 1485.75 1966.98C1490.31 1967.29 1492.3 1969.99 1496.42 1970.57C1510.46 1961.17 1501.44 1941.68 1493.66 1930.98C1483.81 1917.42 1465.77 1912.22 1452.77 1902.34C1448.17 1898.84 1444.01 1893.85 1439.5 1890.1C1433.49 1885.08 1423.72 1882.47 1424.84 1872.61C1425.07 1870.54 1426.63 1869.05 1426.9 1867.34C1428.19 1859.36 1417.2 1849.19 1416.12 1840.81C1414.89 1831.36 1418.27 1822.59 1419.1 1813.37C1420.28 1800.26 1419.86 1778.5 1415.28 1766.25C1412.65 1759.19 1404.63 1753.43 1405.99 1744.98C1407.74 1734.04 1419.37 1743.1 1421.26 1741.26C1426.05 1723.04 1437.75 1744.24 1443.66 1745.82C1446.2 1746.5 1448.79 1745.68 1451.33 1746.11C1471.48 1749.48 1494.93 1757.21 1514.88 1758.84C1527.15 1759.83 1540.93 1756.91 1553.23 1757.65C1572.98 1758.87 1591.54 1764.55 1610.79 1767.42C1623.22 1769.27 1635.92 1769.71 1648.36 1771.36C1653.07 1771.98 1658.26 1774.27 1662.79 1774.61C1687.39 1776.53 1709.75 1764.55 1733.84 1761.22C1750.25 1758.94 1767.51 1758.77 1783.86 1755.95C1800.13 1753.15 1816.18 1737.93 1826.34 1725.48C1836.09 1713.54 1846.46 1689.61 1865.92 1695.51C1873.65 1697.85 1879.89 1701.56 1888.95 1701.55C1899.04 1701.53 1914.85 1682.9 1922.9 1676.05C1936.21 1664.73 1962.95 1641.89 1979.66 1638.95C2002.42 1634.96 2009.31 1643.56 2028.47 1648.31C2065.3 1657.41 2103.49 1649.36 2128.63 1684.88C2142.28 1704.15 2129.87 1735.09 2120.7 1754.35C2106.05 1785.13 2063.8 1825.45 2037.36 1847.72C2020.59 1861.84 1996.58 1881.1 1976.79 1890.01C1964.29 1895.65 1958.31 1899.52 1946.8 1905.88C1937.55 1911 1926.77 1914.56 1917.52 1920.02C1910.17 1924.35 1902.75 1932.04 1895.64 1935.46C1886.15 1940.03 1879.45 1937.46 1872.66 1948.29C1865.4 1959.84 1867.3 1969.72 1855.28 1980.56C1846.26 1988.69 1839.93 1988.05 1830.6 1992.62C1822.15 1996.76 1812.17 2030.49 1807.06 2039.83C1800.84 2051.18 1784.79 2068.19 1773.59 2074.69C1758.59 2083.4 1731.58 2083.58 1723.72 2099.11C1718 2110.43 1718.87 2116.34 1708.72 2126.86L1708.72 2126.85Z" fill="#68B6BC"/>
</svg>
