<svg width="3645" height="2779" viewBox="0 0 3645 2779" fill="none" xmlns="http://www.w3.org/2000/svg">
<path d="M1831.72 1676.85C1812.59 1696.7 1782.1 1699.82 1756.43 1692.44C1730.75 1685.07 1723.69 1674.73 1704.5 1659.45C1697.34 1653.75 1676.72 1639.84 1669.53 1650.12C1665.26 1656.24 1667.71 1657.91 1657.92 1659.21C1642.31 1661.24 1620.63 1657.68 1604.39 1657.98C1593.63 1658.18 1584.44 1659.83 1573.29 1658.19C1550.38 1654.81 1542.5 1647.18 1540.02 1623.88C1539.51 1619.11 1540.41 1609.75 1539.15 1605.97C1538.31 1603.46 1533.31 1602.31 1531.47 1599.69C1523.04 1587.67 1543.68 1587.86 1549.69 1585.26C1553.11 1583.77 1557.82 1575.38 1558.38 1571.9C1558.95 1568.43 1557.4 1557.66 1560.37 1555.5C1564.44 1552.56 1578.98 1561.74 1582.4 1559.27C1591.33 1552.85 1589.79 1534.34 1593.91 1524.67C1596.8 1517.86 1601.48 1516.49 1608.75 1516.98C1613.31 1517.29 1615.3 1519.99 1619.42 1520.57C1633.46 1511.17 1624.44 1491.68 1616.66 1480.98C1606.81 1467.42 1588.77 1462.22 1575.77 1452.34C1571.17 1448.84 1567.01 1443.85 1562.5 1440.1C1556.49 1435.08 1546.72 1432.47 1547.84 1422.61C1548.07 1420.54 1549.63 1419.05 1549.9 1417.34C1551.19 1409.36 1540.2 1399.19 1539.12 1390.81C1537.89 1381.36 1541.27 1372.59 1542.1 1363.37C1543.28 1350.26 1542.86 1328.5 1538.28 1316.25C1535.65 1309.19 1527.63 1303.43 1528.99 1294.98C1530.74 1284.04 1542.37 1293.1 1544.26 1291.26C1549.05 1273.04 1560.75 1294.24 1566.66 1295.82C1569.2 1296.5 1571.79 1295.68 1574.33 1296.11C1594.48 1299.48 1617.93 1307.21 1637.88 1308.84C1650.15 1309.83 1663.93 1306.91 1676.23 1307.65C1695.98 1308.87 1714.54 1314.55 1733.79 1317.42C1746.22 1319.27 1758.92 1319.71 1771.36 1321.36C1776.07 1321.98 1781.26 1324.27 1785.79 1324.61C1810.39 1326.53 1832.75 1314.55 1856.84 1311.22C1873.25 1308.94 1890.51 1308.77 1906.86 1305.95C1923.13 1303.15 1939.18 1287.93 1949.34 1275.48C1959.09 1263.54 1969.46 1239.61 1988.92 1245.51C1996.65 1247.85 2002.89 1251.56 2011.95 1251.55C2022.04 1251.53 2037.85 1232.9 2045.9 1226.05C2059.21 1214.73 2085.95 1191.89 2102.66 1188.95C2125.42 1184.96 2132.31 1193.56 2151.47 1198.31C2188.3 1207.41 2226.49 1199.36 2251.63 1234.88C2265.28 1254.15 2252.87 1285.09 2243.7 1304.35C2229.05 1335.13 2186.8 1375.45 2160.36 1397.72C2143.59 1411.84 2119.58 1431.1 2099.79 1440.01C2087.29 1445.65 2081.31 1449.52 2069.8 1455.88C2060.55 1461 2049.77 1464.56 2040.52 1470.02C2033.17 1474.35 2025.75 1482.04 2018.64 1485.46C2009.15 1490.03 2002.45 1487.46 1995.66 1498.29C1988.4 1509.84 1990.3 1519.72 1978.28 1530.56C1969.26 1538.69 1962.93 1538.05 1953.6 1542.62C1945.15 1546.76 1935.17 1580.49 1930.06 1589.83C1923.84 1601.18 1907.79 1618.19 1896.59 1624.69C1881.59 1633.4 1854.58 1633.58 1846.72 1649.11C1841 1660.43 1841.87 1666.34 1831.72 1676.86L1831.72 1676.85Z" fill="#68B6BC"/>
</svg>
