<svg width="3400" height="3680" viewBox="0 0 3400 3680" fill="none" xmlns="http://www.w3.org/2000/svg">
<path d="M1566.98 2097.39C1566.35 2096.45 1563.93 2095.84 1562.65 2093.78C1557.07 2084.69 1560.58 2067.42 1559.58 2066.44C1558.24 2065.1 1527.91 2077.93 1525.55 2082.24C1518.46 2095.27 1533.64 2114.91 1530.76 2124.93C1530.4 2126.21 1516.74 2144.44 1514.92 2146.31C1510.58 2150.79 1496.54 2161.2 1490.6 2161.7C1479.54 2162.63 1472.83 2151.95 1457.2 2155.96C1446.06 2158.83 1435.32 2182.63 1423.14 2169.51C1414.81 2160.56 1417.18 2132.4 1414.4 2119.56C1411.52 2106.28 1402.25 2098.77 1399.63 2086.84C1397 2074.9 1399.98 2053.96 1397.09 2045.78C1392.48 2032.79 1365.39 2045.87 1352.26 2029.94C1348.3 2025.11 1344.56 2010.96 1351.95 2008.85C1353.36 2008.45 1370.39 2016.44 1377.51 2016.37C1415.93 2016.06 1387.27 1988.64 1384.01 1972.29C1381.67 1960.6 1382.43 1941.34 1390.59 1932.03C1397.56 1924.07 1405.69 1926.04 1411.35 1915.19C1415.14 1907.94 1422.15 1873.83 1419.72 1866.54C1419.14 1864.81 1412.27 1859.45 1409.94 1854.71C1398.33 1830.93 1395.59 1816.37 1403.41 1790.66C1409.46 1770.76 1443.74 1754.36 1453.23 1733.95C1470.23 1734.85 1489.69 1733.69 1503.24 1746.15C1510.63 1752.94 1514.88 1766.64 1522.95 1772.56C1542.53 1786.9 1605.04 1771.39 1631.12 1772.56C1640.98 1773 1648.75 1777.29 1656.66 1778.06C1679.76 1780.35 1702.24 1767.76 1726.39 1767.02C1766.46 1765.78 1800.6 1788.38 1831.39 1748.05C1846.84 1727.82 1838.41 1726.47 1840.54 1706.05C1842.68 1685.62 1872.92 1682.57 1888.83 1683.09C1897.66 1683.39 1911.58 1689 1917.81 1688.33C1926.12 1687.44 1948.73 1674.8 1959.03 1671.53C1973.81 1666.84 1998.68 1660.26 2013.51 1663.31C2027.11 1666.1 2030.76 1675.95 2044 1676.11C2062.51 1676.33 2064.5 1665.56 2078.4 1661.3C2108.93 1651.97 2150.97 1648.93 2150.75 1691.34C2150.34 1767.49 2051.9 1880.64 1991.37 1921.44C1974.08 1933.09 1937.73 1947.49 1927.48 1962.34C1921.51 1970.98 1918.4 1982.24 1913.09 1991.37C1893.77 2024.58 1879.32 2042.99 1854.57 2071.48C1850.93 2075.66 1849.38 2084.29 1843.89 2087.74C1830.72 2096.04 1794.23 2107.39 1777.9 2114.06C1770.76 2116.98 1755.82 2126.65 1751.01 2127.92C1737.95 2131.32 1730.22 2125.97 1716.73 2135.83C1693.26 2152.99 1702.67 2191.44 1683.73 2203.52C1671.58 2211.27 1650.52 2213.91 1636.74 2218.6C1631.32 2220.44 1625.67 2225.03 1620.19 2226.72C1613.5 2228.78 1604.95 2228.34 1599.51 2230.11C1595.64 2231.36 1592.95 2235.97 1588.63 2237.17C1563.72 2244.03 1555.32 2220.18 1572.35 2204.97C1580.36 2197.83 1590.15 2199 1590.36 2184.62C1590.65 2164.09 1575.59 2135.98 1571.09 2116.78C1569.06 2108.14 1572.83 2106.07 1566.95 2097.42L1566.98 2097.39Z" fill="#53B351"/>
</svg>
