<svg width="3645" height="2779" viewBox="0 0 3645 2779" fill="none" xmlns="http://www.w3.org/2000/svg">
<path d="M1689.98 1647.39C1689.35 1646.45 1686.93 1645.84 1685.65 1643.78C1680.07 1634.69 1683.58 1617.42 1682.58 1616.44C1681.24 1615.1 1650.91 1627.93 1648.55 1632.24C1641.46 1645.27 1656.64 1664.91 1653.76 1674.93C1653.4 1676.21 1639.74 1694.44 1637.92 1696.31C1633.58 1700.79 1619.54 1711.2 1613.6 1711.7C1602.54 1712.63 1595.83 1701.95 1580.2 1705.96C1569.06 1708.83 1558.32 1732.63 1546.14 1719.51C1537.81 1710.56 1540.18 1682.4 1537.4 1669.56C1534.52 1656.28 1525.25 1648.77 1522.63 1636.84C1520 1624.9 1522.98 1603.96 1520.09 1595.78C1515.48 1582.79 1488.39 1595.87 1475.26 1579.94C1471.3 1575.11 1467.56 1560.96 1474.95 1558.85C1476.36 1558.45 1493.39 1566.44 1500.51 1566.37C1538.93 1566.06 1510.27 1538.64 1507.01 1522.29C1504.67 1510.6 1505.43 1491.34 1513.59 1482.03C1520.56 1474.07 1528.69 1476.04 1534.35 1465.19C1538.14 1457.94 1545.15 1423.83 1542.72 1416.54C1542.14 1414.81 1535.27 1409.45 1532.94 1404.71C1521.33 1380.93 1518.59 1366.37 1526.41 1340.66C1532.46 1320.76 1566.74 1304.36 1576.23 1283.95C1593.23 1284.85 1612.69 1283.69 1626.24 1296.15C1633.63 1302.94 1637.88 1316.64 1645.95 1322.56C1665.53 1336.9 1728.04 1321.39 1754.12 1322.56C1763.98 1323 1771.75 1327.29 1779.66 1328.06C1802.76 1330.35 1825.24 1317.76 1849.39 1317.02C1889.46 1315.78 1923.6 1338.38 1954.39 1298.05C1969.84 1277.82 1961.41 1276.47 1963.54 1256.05C1965.68 1235.62 1995.92 1232.57 2011.83 1233.09C2020.66 1233.39 2034.58 1239 2040.81 1238.33C2049.12 1237.44 2071.73 1224.8 2082.03 1221.53C2096.81 1216.84 2121.68 1210.26 2136.51 1213.31C2150.11 1216.1 2153.76 1225.95 2167 1226.11C2185.51 1226.33 2187.5 1215.56 2201.4 1211.3C2231.93 1201.97 2273.97 1198.93 2273.75 1241.34C2273.34 1317.49 2174.9 1430.64 2114.37 1471.44C2097.08 1483.09 2060.73 1497.49 2050.48 1512.34C2044.51 1520.98 2041.4 1532.24 2036.09 1541.37C2016.77 1574.58 2002.32 1592.99 1977.57 1621.48C1973.93 1625.66 1972.38 1634.29 1966.89 1637.74C1953.72 1646.04 1917.23 1657.39 1900.9 1664.06C1893.76 1666.98 1878.82 1676.65 1874.01 1677.92C1860.95 1681.32 1853.22 1675.97 1839.73 1685.83C1816.26 1702.99 1825.67 1741.44 1806.73 1753.52C1794.58 1761.27 1773.52 1763.91 1759.74 1768.6C1754.32 1770.44 1748.67 1775.03 1743.19 1776.72C1736.5 1778.78 1727.95 1778.34 1722.51 1780.11C1718.64 1781.36 1715.95 1785.97 1711.63 1787.17C1686.72 1794.03 1678.32 1770.18 1695.35 1754.97C1703.36 1747.83 1713.15 1749 1713.36 1734.62C1713.65 1714.09 1698.59 1685.98 1694.09 1666.78C1692.06 1658.14 1695.83 1656.07 1689.95 1647.42L1689.98 1647.39Z" fill="#53B351"/>
</svg>
