<svg xmlns="http://www.w3.org/2000/svg" width="3400" height="3680"><path d="M1787.86 2381.03c-11.27 8.11-28.84 5.07-38.87-4.57-8.65-8.5-12.14-20.42-19.01-30.27-10.96-15.68-25.02-30.46-42.2-39.04-9.2-4.49-19.66-3.82-29.48-1.82-7.46 1.46-15.07 3.29-21.44 5.94-18.21 7.77-28.15 24.26-49.5 27.44-40.03 6.55-83.17-27.98-123.3-11.17-24.98 9.15-47.99 28.95-73.19 34.83-15.62 3.35-29.18-3.5-39.32-15.3-7.86-8.76-17.25-17.09-28.8-20.6-17.93-6.31-38.99-.34-54.95-7.25-20.33-8.75-19.91-35.02-14.27-53.29 5.91-21.91 23.67-37.87 41.23-51.02 20.1-14.42 30.67-26.76 31.98-52.7.65-18.59-4.61-36.36-5.15-54.87-.76-23.08-1.34-55.19 9.02-75.71 6.1-11.6 18.5-16.18 31.18-16.59 20.06-.55 40.05-.6 59.93.04 79.72 4.73 163.45 8.68 232.32 52.53 14.08 9.37 25.84 16.56 41.25 24.76 32.31 18.92 105.91 55.05 111.27 94.51 3.99 27.82-11.46 57.97 2.52 84.72 9.94 19.31 30.3 39.91 19.46 63.15-4.33 9.71-13.3 15.89-20.5 23.31-7.24 7.05-11.95 16.74-20.03 22.86l-.14.1Z" style="fill:#c26a1e"/></svg>