<svg xmlns="http://www.w3.org/2000/svg" width="3400" height="3680"><g style="isolation:isolate"><path d="M2076.4 1633.99c9.43 9.53 1.31 26.45-1.94 37.51-4.66 13.81-9.68 27.07-18.42 38.74-7.32 10.07-15.77 19.24-22.33 29.84-10.37 17.05-19.63 35.58-24.84 54.73-8.46 33.09-5.9 68.46-30.22 95.69-21.64 24.26-30.54 23.11-36.8 57.47-5.52 21.06-23.77 37.43-31.81 57.53-6.32 15.79-6.84 33.27-6.26 50.27.29 8.8.94 17.82-.87 26.43-4.35 19.05-19.27 34.14-31.8 49.19-7.73 8.9-14.8 18.25-24.06 25.6-10.91 8.88-25.28 14.43-33.12 26.75-8.65 13.05-10.25 30.85-12.3 46.57-1.29 11.11-1.14 22.48-8.29 30.97-12.22 13.09-39.33 10.44-55.97 8.69-7.62-1.05-14.58-2.83-21.38-5.13-14.33-5.05-29.59-11.21-44.45-15.65-86.31-26.84-171.61-51.97-263.43-47.54-15.97.78-32.88 1.88-48.54 1.44-9.14-.25-20.91-1.11-27.14-6.29-11.95-9.92-4-29.39-5.1-42.92-.66-28.99-9.96-60.28-4.44-89.91 2.02-12.36 5.57-24.41 5.28-36.97-.38-13.63-3.35-28.19-6.2-41.23-1.64-6.96-3.79-13.73-6.97-20.11-12.2-24.69-36.71-44.21-51.82-67.01-5.01-7.56-9.64-16.11-13.88-24.33-12.64-24.87-26.93-50.92-27.66-78.86-1.48-41.49 28.3-84.1 54.01-116.09 23.25-27.46 44.42-41.1 80.52-33.18 16.45 3.59 31.04 11.72 44.5 21.47 16.07 11.97 31.07 26.28 50.24 33.43 215.38 93.02 217.35 66.42 426.77-9.33 16.77-5.07 33.77-11.38 47.35-22.73 13.49-10.89 27.57-22.93 43.85-29.71 18.55-8.31 38.37-5.34 58.38-6.83 8.49-.57 17.11-1.7 25.43-2.54 8.16-.94 17.64-1.43 23.59 3.92l.1.1Z" style="fill:#c26a1e;mix-blend-mode:overlay"/></g></svg>