<svg xmlns="http://www.w3.org/2000/svg" width="3400" height="3680"><g style="isolation:isolate"><path d="M2074.95 1625.26c9.67 10.54 5.33 28.63 1.57 41.36-4.52 14.75-11.12 29.19-20.28 41.83-7.54 10.49-16.21 19.92-22.9 31.04-15.19 25.64-25.38 54.08-30.73 83.62-5.15 31-6.39 49.67-29.93 73.14-14.52 14.31-25.74 23.3-29.11 43.41-3.23 21.3-17.95 37.17-28.46 55.27-11.36 18.88-12.21 41.71-11.31 63.17.22 6.29.46 12.78-.22 18.97-2.09 20.08-17.22 36.24-30.07 51.68-6.44 7.39-12.45 15.15-19.36 22.04-11.1 11.9-28.65 18.14-38.7 31.14-8.84 11.55-10.59 26.63-12.86 40.64-2.11 13.87-2.44 27.84 2.49 41.06 7.74 23.35 29.12 42.13 24.23 66.46-3.23 15.37-18.49 23.77-28.14 35.37-5.64 6.34-9.85 14.38-17.27 18.76-9.45 5.77-23.53 2.87-32.17-4.11-6.75-5.19-11.18-12.71-15.25-20.09-10.28-19.15-28.33-40.89-48.09-50.83-16.88-7.67-38.97-2.06-55.67 5.4-17.19 8.98-29.39 24-50.11 25.8-36.22 4.01-72.46-23.77-108.01-14.8-15.16 3.65-29.05 11.86-42.72 19.51-16.66 8.95-33.6 20.82-52.63 19.03-22.5-2.22-32.48-26.79-52.48-34.76-20.77-9.8-53.36 1.26-69.04-17.03-14.08-19.28-5.01-50.87 8.8-68.75 7.96-10.64 18.96-19.9 29.59-28.02 7.51-5.84 15.14-11.48 20.61-19.36 15.44-22.32 9.18-50.51 6.04-75.54-1.58-16.48-2.57-33.47-.53-49.98 1.53-12.55 4.99-24.48 5.9-36.7.97-16.17-2.72-32.87-6.06-48.63-4.94-25-22.66-44.43-39.15-62.91-14.03-14.94-24.68-31.09-33.69-49.39-14.86-28.89-30.24-58.61-26.9-91.61 1.87-26.36 16.1-48.16 29.39-70.72 14.72-25.08 23.39-34.23 53.09-24.2 266.5 104.23 370.83 153.38 633.4-5.67 23.05-13.34 45.35-26.66 68.2-39.5 17.5-9.2 52.74-29.91 68.41-16.22l.11.1Z" style="fill:#c26a1e;mix-blend-mode:overlay"/></g></svg>