<svg xmlns="http://www.w3.org/2000/svg" width="3400" height="3680"><g style="isolation:isolate"><path d="M2018.07 1759.27c4.89 5.92-1.35 16.8-3.89 25.35-2.55 7.22-4.44 14.67-5.8 22.21-5.36 34.45-8.58 66.26-35.73 90.84-6.5 6.54-14.21 13.01-19.17 20.61-8.25 12.09-7.16 26.98-13.69 39.73-11.69 22.39-30.56 40.41-33 66.93-2.45 15.75-.46 32.53-.9 48.19-.37 12.28-5.58 23.37-12.91 33.49-6.56 9.36-14.3 18.12-21.74 26.77-8.67 10.2-15.68 19-25.83 26.29-20.13 13.61-33.2 19.46-38.38 45.46-6.02 28.94-8.34 49.6 7.17 75.84 5.23 9.49 11.33 18.57 14.9 28.72 8.5 24.83-4.85 35.98-21.91 51.47-12.41 11.87-17.82 30.44-38.84 26.83-19.1-3.01-26.7-19.26-35.16-34.41-10.96-17.76-34.94-45.63-57.02-47.3-15.54-1.12-34.73 3.79-47.99 11.49-14.2 9.05-27.26 21.88-45.12 23.36-36.02 4.16-74.56-23.57-111.41-13.91-14.76 3.69-27.94 11.64-41.42 18.94-22.29 12.13-51.39 29.23-73.56 9.41-11.41-10.13-22.62-24.33-38.72-27.81-15.2-3.98-32.15-1.5-47.22-5.46-27.85-6.49-25.14-42.65-15.36-63.7 6.46-14.4 18.88-27.13 31.55-36.97 10.49-8.34 21.74-15.59 28.85-27.1 18.8-31.45 4.32-69.32 3.8-103.98-.94-15.62 2.31-30.98 5.34-46.21 2.88-14.11 1.63-27.05-1.28-41.48-2.55-12.57-5.03-25.19-9.93-36.81-8.05-18.65-23.68-33.8-36.92-49.04-12.64-13.72-22.07-29.59-29.58-46.73-3.99-8.81-7.82-19.91-5.08-28.42 4.21-13.29 17.26-21.36 29.27-27.04 79.97-32.9 166.89-5.93 249.31 1.44 163.95 18.1 321.9 2.18 476.12-56.62 7.37-1.96 16.18-4.8 21.19-.44l.07.07Z" style="fill:#c26a1e;mix-blend-mode:overlay"/></g></svg>