<svg xmlns="http://www.w3.org/2000/svg" width="3400" height="3680"><g style="isolation:isolate"><path d="M1787.82 2381.07c-10.19 7.42-24.69 5.28-34.87-1.99-9.55-6.8-13.99-17.94-19.81-27.68-10.68-17.21-33.18-43.29-54.34-46.63-15.68-2.06-37.37 3.26-51.43 11.79-13.63 9.21-27.05 21.42-44.16 22.74-39.62 4.08-82.07-28.63-121.79-10.49-17.61 7.05-34.74 18.63-51.75 26.76-14.88 7.5-30.96 11.46-45.52 2.65-12.43-7.2-20.57-21.07-33.7-27.93-13.24-7.51-28.97-6.51-43.7-7.38-11.6-.58-24.46-3.19-31.29-12.56-10.32-15.07-5.23-38.28 1.87-55.07 8.94-20.03 27.86-32.6 44.3-45.58 41.27-30.3 18.21-83.33 18.63-125.71-.23-15.31 4.23-30.22 6.3-45.28 2.15-16.28-2.65-32.31-5.56-48.34-2.78-18.87-10.94-35.21-23.19-49.9-16.15-21.51-57.6-58.61-49.95-86.1 5.1-12.73 20.62-15.54 32.6-18.9 39.27-9 83.62-12.92 124.77-12.5 32.86-.21 60.47 15.65 91.43 24.39 21.69 6.26 43.52 8.54 65.17 13.82 28.27 6.82 55.5 15.84 84.94 17.01 86.77 2.97 180.1-8 263.17 22.17 10.87 4.19 22.23 9.62 29.18 19.3 20.23 31.21-23.18 65.08-29.7 95.19-4.22 14.55-4.51 30.54-3.82 45.48.89 15.23-.57 27.52-9.43 40.72-6.87 10.7-15.6 20.71-23.99 30.31-8.95 10.31-16.59 20.39-27.3 27.87-10.88 7.67-24.12 13.8-31.01 25.73-5.73 9.37-7.53 20.84-9.23 31.68-2.08 14.52-3.96 27.48-.28 41.11 4.75 18.3 18.54 32.77 24.83 50.37 8.04 24.23-4.3 35-20.99 50.32-7.25 7-12.19 16.46-20.25 22.56l-.14.1Z" style="fill:#c26a1e;mix-blend-mode:overlay"/></g></svg>