<svg xmlns="http://www.w3.org/2000/svg" width="3400" height="3680"><g style="isolation:isolate"><path d="M2076.38 1633.54c9.43 9.55 1.31 26.5-1.94 37.58-4.66 13.84-9.68 27.11-18.42 38.82-7.32 10.09-15.77 19.28-22.33 29.9-11.13 18.38-20.97 38.24-25.9 59.07-7.17 32.03-5.92 65.47-29.16 91.63-8.74 10.69-21.9 19.9-28.58 31.28-7.02 11.66-6.09 25.46-12.36 37.56-4.68 9.42-12.17 19.56-18.02 28.66-7 10.46-12.18 21.42-14.17 33.8-2.27 12.48-2.13 26.38-1.56 39.22.64 12.34.02 24.5-6.2 35.57-5.44 10.22-13.57 20.07-21.53 29.4-8.61 9.81-16.13 18.23-25.4 26.37-10.71 9.67-25.19 16.74-34.35 28.44-13.87 17.3-11.94 41.77-22.57 60.47-10.58 19.13-31.79 12.63-49.07 6.01-30.98-11.94-58-27.28-85.08-44.58-5.48-3.25-11.18-6.28-16.91-8.84-37.13-15.73-80.93-26.41-124.39-36.26-30.1-6.33-60.73-13.74-91.27-15.42-25.46-1.72-50.56 2.89-76.28.69-30.07-2.99-29.74-27.88-30.1-53.06-.11-11.54 1.18-22.17 3.46-33.13 2.67-12.59 4.97-24.3 3.43-37.52-6.43-52.39-14.22-61.95-48.6-100.21-12.84-13.85-22.56-29.99-30.96-46.91-18.64-35.78-35.18-70.19-21.58-110.64 4.39-13.8 11.01-26.73 18.38-39.01 8.58-14.32 18.72-29.15 30.72-43.43 14.75-16.77 28.77-31.03 50.16-34.52 34.04-5.11 64.5 12.92 90.14 34.73 6.95 5.69 14.19 11.12 22.09 15.42 4.57 2.52 9.33 4.7 14.19 6.69 73.71 27.54 143.02 67.84 222.77 57.53 66.56-10.74 128.81-41.79 191.93-63.83 20.13-6.76 41.28-12.18 58.05-25.94 16.55-13.07 32.93-28.25 53.96-33.59 17.77-4.96 35.21-2.1 53.41-3.84 12.64-.38 34.65-6.88 43.94 1.79z" style="fill:#c26a1e;mix-blend-mode:overlay"/></g></svg>