<svg xmlns="http://www.w3.org/2000/svg" width="3400" height="3680"><g style="isolation:isolate"><path d="M2067.91 1667.68c4.02 3.52 3.06 13.33.5 19.36-5.53 14.59-16.32 26.17-25.52 38.58-6.44 8.58-12.13 17.8-16.87 27.42-11.19 22.76-19.32 47.61-23.45 73.14-2.84 15.69-3.9 30.75-11.23 45.12-4.51 9.06-10.95 17.14-18.04 24.37-10.19 10.53-21 18.7-25.77 31.52-3.94 10.37-4.28 21.18-9.42 31.29-7.93 16.06-21.5 30.81-28.01 47.71-6.11 16.04-6.46 33.83-5.84 50.94.31 9.08.81 18.37-1.44 27.19-4.85 18.15-19.21 33.09-31.42 47.74-7.52 8.74-14.48 17.84-23.49 25.09-11.24 9.31-26.48 15.46-34.34 28.36-6.73 10.95-8.32 24.1-10.43 36.66-2.27 14.22-2.87 28.5 2.18 42.07 7.71 23.59 29.47 42.37 24.31 67.25-3.39 15.25-18.57 23.56-28.15 35.13-5.65 6.37-9.83 14.46-17.26 18.87-9.54 5.84-23.77 2.83-32.45-4.24-5.44-4.24-9.41-10.02-12.81-15.95-9.36-18.33-22.76-35.45-39.21-48.22-12.15-10.15-27.25-12.62-42.27-9.27-10.18 1.91-21.23 5.19-29.75 10.52-13.85 8.93-27.22 21.68-44.6 23.08-35.78 4.18-74.05-23.4-110.67-13.88-14.7 3.64-27.82 11.55-41.22 18.84-16.68 8.86-34.75 19.93-53.52 18.46-22.15-2.05-31.58-26.82-51.81-34.45-16.63-7.22-36.08-2.89-53.14-7.58-27.31-7.01-24.72-39.25-16.76-60.96 6.27-17.74 20.48-31.23 35.11-41.98 60.35-38.72 24.37-91.83 30.44-148.16 2.1-18.41 8.42-35.56 5.65-54.4-3.67-23-7.44-47.51-21.29-66.85-14.98-21.15-35.79-38.68-48.48-61.58-16.51-30.87-35.19-62.65-35.67-98.52-.19-17.76 3.24-37.69 16.8-49.82 19-16.23 51.03-4.31 72.7 1.48 48.95 14.91 94.69 41.56 146.13 51.68 73.18 12.15 149.52 6.35 223.15 4.1 24.04-1.23 48.8.73 72.74-1.07 69.24-7.18 147.8-39.6 207.15-69.57 11.55-5.98 22.13-12.09 33.08-19.59 15.43-10.49 31.04-23.28 46.12-33.12 8.46-5.16 20.24-13.36 28.19-6.82l.08.08Z" style="fill:#c26a1e;mix-blend-mode:overlay"/></g></svg>