<svg xmlns="http://www.w3.org/2000/svg" width="3400" height="3680"><path d="M1786.85 2380.92c-10.15 7.44-24.67 5.26-34.78-2.01-6.84-4.89-11.16-12.27-15.12-19.55-7.83-15.34-18.58-28.75-31.78-40.1-8.93-7.59-19.19-14.97-31.27-15.34-12.31-.14-25.81 3.15-36.97 7.41-11.6 4.55-20.3 13.82-30.81 20.24-38.68 23.79-83.09-12.88-124.32-8.1-11.83 1.25-22.57 5.82-33.23 11.32-12.46 6.42-25.66 14.58-38.08 20.6-15.62 8.11-33.09 11.7-47.81 1.1-12.12-8.45-21.03-23.05-35.53-28.68-20.75-9.63-52.22 1.6-68.67-15.78-.28-.29-.54-.61-.77-.94-15.2-21.15-3.31-55.98 13.4-74.01 11.89-14.21 28.41-23.38 41.28-36.22 13.71-14.09 16.49-35.45 14.13-54.56-3.53-25.1-7-51.15-4.09-76.67 2.3-17.84 8.15-35.51 5.48-53.63-2.15-15.46-4.6-32.9-10.91-47.6-4.18-9.55-9.07-19.36-16.49-26.61-14.12-13.79-3.85-23.82 4.33-25.09 20.07-3.11 63.2-9.42 85.95-12.83 10.73-1.62 16.99-2.45 25.26-2.65 91.47-.8 180.73 24.48 269.08 44.69 63.73 14.7 127.01 31.49 182.73 67.01 11.47 6.64 24.6 13.92 30.59 25.99 6.71 14.33 7.24 32.06 3.42 47.31-4.19 14.36-13.94 25.4-24.12 37.26-8.09 8.84-15.3 18.06-23.56 26.57-7.23 7.46-15.47 12.33-24.4 18.18-21.95 13.77-22.69 34.39-26.58 57.45-10.17 51.32 29.26 63.65 27.1 99.29-1.29 16.61-16.61 25.56-26.68 36.96-5.79 6.54-10.28 14.28-16.63 18.91l-.14.1Z" style="fill:#c26a1e"/></svg>