<svg xmlns="http://www.w3.org/2000/svg" width="3400" height="3680"><path d="M1788.24 2380.88c-11.37 8.17-28.97 4.82-39.08-4.88-8.73-8.55-12.39-20.53-19.36-30.42-9.47-13.79-22.3-26.66-36.25-35.49-8.97-5.9-19.7-7.47-30.21-5.58-9.07 1.44-18.92 3.67-26.88 7.08-9.26 3.87-16.24 10.21-24.29 16.03-39.25 31.28-88.38-9.62-132.05-4.1-30.02 4.16-56.04 28.19-83.5 37.18-25.58 8.15-37.86-5.59-54.58-22.38a53.3 53.3 0 0 0-32.08-14.58c-17.96-2.12-40.29 1.38-52.25-11.13-12.43-14.17-9.36-37.72-2.21-54.35 7.15-16.12 20.75-29.75 34.83-40.79 8.5-6.7 17.79-12.7 24.39-21.26 21.75-29.02 6.09-66.48 6.07-99.64-.43-15.44 2.43-31.08 4.97-46.12 1.66-9.95 2.36-19.58 1.17-29.51-1.11-11.32-4.86-24.22-2.26-34.77 4.98-19.24 27.15-22.08 44.14-24.64 42.76-5.41 91.75-3.11 135.03.94 92.88 10.83 195.36 61.05 277.37 108.92 20.62 12.49 44.08 26.99 62.18 40.98 8.47 6.59 16.11 14.33 15.52 25.26-2.21 18.18-21.43 23.77-34.15 35.14-10.63 8.49-15.4 21.59-17.18 34.69-1.62 11.46-3.93 22.92-4.21 34.52-1.61 34.32 24.38 46.89 28.25 75.19 2.2 21.99-13.91 30.59-26.65 44.83-5.71 6.53-10.26 14.23-16.61 18.78l-.14.1Z" style="fill:#c26a1e"/></svg>