<svg xmlns="http://www.w3.org/2000/svg" width="3400" height="3680"><path d="M2075.97 1632.84c8.4 8.62 3.51 23.79.57 34.3-4.52 14.69-11.08 29.02-20.17 41.61-7.16 10.02-15.44 19.04-22.04 29.46-14.02 22.51-25.23 47.12-29.2 72.99-5.09 32.01-7.64 62.87-33.14 86.17-6.91 6.93-15.37 13.43-20.54 21.36-8.53 12.3-7.28 27.65-13.91 40.83-6.74 13.5-17.64 26.94-24.46 40.55-12.19 23.32-9.11 48.96-9.27 74.23-.61 19.48-13 34.57-25.21 49.36-9.88 11.45-19.01 21.92-30.11 31.26-22.63 17.94-36.74 22.49-43.88 53.69-3.63 12.11-5.14 32.03-19.29 35.16-6.75 1.04-13.74-1.45-20.08-3.83-50.39-20.2-87.32-62.9-131.25-91.04-15.24-9.63-32.43-16.07-48.36-24.56-15.52-8.19-30.46-17.11-46.51-24.05-22.71-10.35-47.75-13.93-72.58-14.65-34.19-1.54-69.22-.3-102.35 8.89-19.59 4.89-44.33 8.72-42.32-19.69 1.44-16.68 7.65-33.02 6.36-49.86-.57-9.98-2.44-19.99-4.3-29.83-2.06-10.33-4.28-20.08-8.94-29.38-14.63-28.86-44.96-50.86-59.74-80.51-17.45-33.58-39.3-70.23-32.15-109.05 3.61-21.15 13.85-41.05 25.02-59.14 16.74-25.81 39.5-60.7 69.89-71.19 14.75-4.55 31.45-3.05 46.24 1.47 20.8 6.36 38.49 20.39 55.92 34.69 5.62 4.44 11.52 8.55 17.79 12.01 4.72 2.62 9.65 4.9 14.68 6.97 75.59 28.46 144.86 69.15 226.66 56.59 59.99-11.24 116-37.15 173.07-57.86 17.89-7.19 37.03-11.4 54.41-19.79 23.68-11.79 40.59-34.78 66.22-43.27 19.22-7.18 39.05-3.89 59.1-5.7 12.49-.36 34.64-6.8 43.74 1.7l.1.1Z" style="fill:#c26a1e"/></svg>