<svg width="3645" height="2779" viewBox="0 0 3645 2779" fill="none" xmlns="http://www.w3.org/2000/svg">
<path d="M1620.58 1288.89C1626.89 1294.11 1645.99 1300.25 1654.29 1301.74C1657.66 1302.35 1660.55 1301.36 1664.46 1302.45C1669.12 1303.75 1672.08 1307.88 1678.5 1309.7C1694.45 1314.25 1713.39 1313.5 1729.64 1317.83C1737.07 1318.63 1745.99 1315.05 1749.91 1308.54C1751.26 1306.27 1751.45 1303.53 1752.76 1301.24C1758.96 1290.47 1779.12 1268.96 1791.56 1266.74C1809.53 1263.54 1815.75 1272.23 1829.88 1277.84C1836.32 1280.41 1845.04 1280.73 1850.5 1282.85C1857.73 1285.65 1865.27 1286.7 1873.85 1286.92C1885.36 1287.22 1905.71 1287.11 1916.81 1285.9C1919.29 1285.64 1933.9 1280.07 1935.82 1278.4C1940.28 1274.51 1937.25 1266.99 1944.89 1262.43C1951.61 1258.41 1975.41 1257.25 1978.1 1253.47C1982.23 1247.67 1970.61 1241.2 1967.61 1237.31C1959.71 1227.1 1960.97 1216.35 1975.07 1214.54C1981.39 1213.73 1993.77 1213.54 2000.42 1213.56C2011.85 1213.59 2019.83 1215.07 2030.77 1216.87C2037.63 1218 2043.1 1216.76 2048.91 1220.68C2051.43 1222.39 2053.08 1225.47 2056.13 1226.54C2066.94 1230.34 2089.11 1223.97 2101.08 1222.87C2104.9 1222.52 2114.5 1221.67 2117.72 1222.23C2118.25 1222.33 2123.16 1227.35 2123.79 1228.53C2125.57 1231.91 2127.06 1243.82 2127.68 1244.35C2128.11 1244.71 2134.97 1241.44 2138.16 1242.24C2139.76 1242.64 2143.75 1247.93 2144.32 1249.4C2145.01 1251.18 2143.08 1252.46 2142.97 1254.53C2142.77 1258.22 2145.8 1270.55 2147.77 1273.83C2151.76 1280.45 2155.25 1268.42 2160.68 1274.02C2160.18 1264.74 2158.84 1259.66 2164.54 1251.86C2175.06 1237.49 2186.55 1244.99 2179.09 1260.83C2177.77 1263.63 2173.81 1269.72 2171.84 1272.17C2165.41 1280.2 2163.53 1276.7 2161.91 1288.27C2161.69 1289.93 2158.62 1291.2 2162.41 1293.12C2167.37 1295.64 2176.95 1295.86 2179.21 1303.26C2182.24 1313.15 2178.75 1334.73 2166.37 1336.64C2149.44 1339.23 2136.66 1326.3 2119.72 1323.62C2117.56 1323.27 2115.5 1325.71 2112.88 1322.75L2099.35 1348.6C2088.49 1352.32 2080.35 1361.97 2071.44 1368.8C2069.03 1370.65 2053.59 1380.98 2051.85 1381.37C2048.61 1382.11 2051.42 1376.85 2051.19 1376.7C2050.15 1376 2038.96 1377.65 2037.23 1378.66C2032.3 1381.54 2033.81 1397.17 2021.51 1391.69C2019.32 1390.7 2016.39 1385.67 2014.63 1388.43C2014.07 1389.29 2011.88 1402.41 2011.94 1403.99C2012.1 1408.23 2014.89 1411.91 2014.08 1416.83C2013.1 1422.92 2006.56 1426.59 2005.64 1429.78C2003.34 1437.55 2004.84 1461.08 1998.87 1465.04C1992.01 1469.58 1989.98 1458.84 1985.75 1455.67L1968.63 1448.33C1967.64 1449.35 1973.87 1454.42 1974.62 1455.99C1979.29 1465.74 1969.43 1475.37 1960.42 1477.3C1952.62 1478.98 1945.17 1475.24 1939.53 1481.42C1936.88 1484.31 1936.58 1489.43 1932.31 1490.13C1924.38 1491.41 1923.56 1484.07 1919.61 1483.19C1913.8 1481.9 1899.23 1492.17 1899.43 1478.63C1899.54 1471.14 1905.83 1469.68 1909.73 1464.68C1920.84 1450.44 1895.62 1460.08 1900.79 1444.64C1904.54 1433.45 1918.58 1435.01 1927.47 1437.7C1931.18 1438.81 1935.88 1442.14 1939.09 1442.71C1948.39 1444.38 1958.8 1441.95 1967.61 1446.98C1963.42 1443.85 1961.95 1438.28 1957.22 1435.78C1947.43 1430.6 1928.06 1434.65 1935.6 1415.47C1936.65 1412.8 1944.42 1403.85 1938.17 1402.84C1936.84 1402.61 1920.84 1407.91 1918.77 1408.93C1915.78 1410.39 1913.86 1413.32 1910.37 1414.69C1897.14 1419.94 1884.34 1416.22 1871.33 1428.19C1869.22 1430.15 1869.4 1432.74 1867.39 1433.64C1866.17 1434.17 1861.08 1435.45 1859.76 1435.55C1858.54 1435.64 1850.55 1435.31 1849.68 1435.15C1848.31 1434.89 1848.54 1431.91 1847.91 1431.49C1846.44 1430.51 1823.56 1436.26 1820.39 1437.93C1813.45 1441.6 1817.21 1442.78 1815.32 1445.86C1814.57 1447.06 1812.38 1446.49 1811.34 1447.15C1810.37 1447.77 1798.63 1464.1 1797.73 1465.7C1796.55 1467.77 1795.69 1474.5 1794.7 1474.78C1790.74 1475.93 1790.59 1471.55 1790.29 1467.91C1790.1 1465.6 1790.95 1456.33 1789.81 1455.29C1788.85 1454.4 1782.8 1456.54 1780.98 1456.61C1770.44 1457.01 1766.06 1437.61 1750.15 1442.42C1734.98 1446.99 1746.64 1456.29 1741.88 1464.56C1740.29 1467.32 1726.36 1480.77 1723.79 1480.31C1722.46 1480.06 1722.38 1476.64 1721.21 1475.26C1719.19 1472.85 1710.45 1469.71 1709.15 1466.76C1708.68 1465.72 1709.35 1460.87 1708.08 1457.24C1705.76 1450.64 1703.66 1447.49 1696.81 1450.81C1693.02 1452.64 1685.33 1463.26 1682.25 1459.28C1680.9 1457.53 1686.48 1431.7 1682.83 1429.44C1679.8 1427.56 1672.32 1437.43 1671.24 1439.75C1669.73 1442.99 1670.25 1447.77 1669.22 1451.42C1668.2 1455.08 1660.53 1469.49 1657.32 1471.11C1649.7 1474.97 1648.49 1465.48 1650.51 1460.26C1651.52 1457.63 1657.9 1452.53 1654.71 1450.54C1650.64 1447.99 1637.63 1457.18 1632.06 1455.5C1629.06 1454.6 1627.96 1447.76 1631.74 1446.48C1633.53 1445.88 1637.1 1447.21 1636.63 1444.71C1633.18 1442.3 1629.34 1436.75 1625.88 1434.88C1622.42 1433 1617.72 1433.21 1614.08 1432.03C1609.35 1430.47 1604.73 1427.98 1600.11 1426.63C1596.99 1425.72 1592.79 1425.93 1590.59 1425.21C1589.02 1424.68 1588.51 1422.41 1586.97 1421.32C1582.28 1417.96 1573.55 1420.03 1567.89 1418.53C1559.9 1416.41 1556.47 1398.46 1551.6 1396.14C1547.92 1394.39 1544.11 1395.41 1540.34 1391.74C1538.98 1390.42 1535.81 1385.33 1535.31 1383.5C1534.75 1381.46 1534.81 1375.49 1534.47 1375.13C1533.52 1374.11 1525.79 1374.32 1524.18 1368.18C1520.61 1354.61 1541.66 1354.19 1544.37 1349.34C1545.83 1346.72 1543.16 1340.2 1546.16 1336.54C1548.02 1334.27 1556.49 1333.1 1557.23 1331.89C1558.64 1329.61 1551.78 1326.99 1554.96 1321.41C1555.94 1319.71 1559.79 1320.08 1556.25 1316.96C1552.7 1313.85 1548.84 1315.92 1544.99 1315.47C1538.65 1314.73 1528.54 1297.68 1526.4 1291.67C1521.21 1277.15 1519.8 1265.97 1529.41 1253.29C1538.72 1240.97 1551.55 1230.21 1567.86 1230.24C1575.17 1230.25 1580.86 1234.95 1588.7 1234.18C1595.99 1233.48 1606.15 1227.05 1613.3 1227.94C1615.44 1228.2 1622.8 1232.1 1624.34 1233.66C1625.31 1234.64 1629.71 1242.34 1629.75 1243.34C1630.09 1252.05 1617.33 1255.24 1613.6 1260.83C1607.83 1269.48 1613.35 1282.89 1620.6 1288.88L1620.58 1288.89ZM2125.49 1292.52C2116.16 1294.84 2111.48 1313.17 2116.93 1318.89C2117.23 1319.21 2124.06 1321.44 2124.56 1321.42C2127.54 1321.29 2127.22 1316.38 2128.42 1314.2C2130.13 1311.14 2146.47 1296.29 2146.44 1294.78C2145.48 1293.37 2144.56 1293.61 2143.14 1293.48C2137.84 1292.96 2130.31 1291.32 2125.49 1292.52ZM2167.75 1300.05L2167.79 1300.99C2168.38 1300.66 2168.36 1300.35 2167.75 1300.05ZM2174.99 1305.4C2176.28 1304.16 2169.85 1300.12 2169.21 1300.94C2166.95 1304.72 2174.13 1306.24 2174.99 1305.4ZM2135.27 1320.99C2132.73 1318.3 2133.05 1326.67 2135.38 1323.79C2135.46 1323.68 2135.36 1321.09 2135.27 1320.99Z" fill="#ECA342"/>
<path d="M2195.43 1258.96C2194.18 1258.13 2191.29 1258.55 2190.91 1257.29C2189.62 1252.82 2191.95 1248.91 2192.28 1245.12C2192.8 1239.28 2191.63 1228.66 2197.2 1224.37C2199.02 1222.96 2201.21 1223.19 2202.72 1222.25C2204.92 1220.88 2203.58 1217.28 2209.44 1218.93C2212.67 1219.84 2224.45 1233.89 2225.77 1237.38C2227.82 1242.84 2226.43 1262.76 2222.21 1266.5C2217.65 1270.53 2207.06 1270.28 2202.1 1266.86C2199.32 1264.95 2197.11 1260.07 2195.43 1258.96Z" fill="#ECA342"/>
<path d="M1650.15 1267.57C1655.76 1265.82 1678.18 1279.03 1668.13 1282.49C1658.08 1285.96 1640.8 1270.47 1650.15 1267.57Z" fill="#ECA342"/>
<path d="M1484.21 1242.62C1480.59 1246.8 1469.56 1245.33 1471.52 1237.69C1473.94 1228.31 1491.03 1234.76 1484.21 1242.62Z" fill="#ECA342"/>
<path d="M2235.97 1119.41C2244.86 1116.02 2249.54 1128.76 2241.49 1131.8C2233.44 1134.85 2230.11 1121.64 2235.97 1119.41Z" fill="#ECA342"/>
<path d="M2285.07 1126.89C2295.31 1124.62 2293.6 1140.74 2282.64 1137.91C2277.62 1136.6 2279.72 1128.08 2285.07 1126.89Z" fill="#ECA342"/>
<path d="M1887.83 1549.15C1896.73 1546.26 1888.44 1563.76 1882.62 1562.28C1877.45 1560.97 1884.67 1550.18 1887.83 1549.15Z" fill="#ECA342"/>
<path d="M1700.96 1247.83C1709.08 1245.11 1711.44 1262.2 1701.38 1257.74C1696.46 1255.55 1696.39 1249.35 1700.96 1247.83Z" fill="#ECA342"/>
<path d="M1926.63 1509.27C1930.25 1508.28 1938.85 1508.3 1937.31 1513.71C1935.69 1519.38 1915.21 1512.35 1926.63 1509.27Z" fill="#ECA342"/>
<path d="M1487.82 1264.45C1494.37 1262.27 1493.91 1277.1 1485.34 1274.57C1481.47 1273.45 1484.25 1265.63 1487.82 1264.45Z" fill="#ECA342"/>
<path d="M1878.57 1575.39C1876.54 1577.67 1866.47 1576.18 1869.45 1570.53C1869.57 1570.3 1873.31 1567.58 1873.55 1567.5C1877.22 1566.33 1881.8 1571.76 1878.57 1575.39Z" fill="#ECA342"/>
<path d="M1886.82 1480.97C1880.19 1488.36 1875.32 1477.06 1882.4 1474.54C1884.31 1473.86 1888.52 1475.8 1889.04 1477.29C1889.87 1479.63 1887.86 1479.81 1886.82 1480.97Z" fill="#ECA342"/>
<path d="M1728.82 1266.42C1736.33 1263.63 1737.02 1275.46 1729.93 1275.59C1725.49 1275.68 1725.61 1267.61 1728.82 1266.42Z" fill="#ECA342"/>
<path d="M1885.18 1457.33C1893.28 1454.24 1896.39 1463.94 1889.07 1464.63C1883.19 1465.2 1882.14 1458.48 1885.18 1457.33Z" fill="#ECA342"/>
<path d="M1931.6 1493.94C1934.18 1493.05 1942.08 1495.14 1940.14 1499.15C1936.39 1506.88 1926.28 1495.78 1931.6 1493.94Z" fill="#ECA342"/>
<path d="M1704.67 1282.93C1701.76 1280.22 1703.54 1274.99 1708.3 1275.5C1715.16 1276.21 1710.27 1288.15 1704.67 1282.93Z" fill="#ECA342"/>
<path d="M1744.64 1286.47C1753.19 1284.33 1745.9 1296.93 1740.45 1293.54C1737.32 1291.58 1742.32 1287.05 1744.64 1286.47Z" fill="#ECA342"/>
<path d="M1524.21 1228.2C1527.75 1231.52 1517.05 1241.07 1516.8 1232.7C1516.68 1228.63 1523.2 1227.24 1524.21 1228.2Z" fill="#ECA342"/>
<path d="M1729.47 1306.35C1728.37 1307.56 1722.63 1307.21 1722.23 1306.85C1721.84 1306.49 1722.5 1301.73 1723.11 1301.33C1726.11 1299.3 1733.63 1301.75 1729.49 1306.35L1729.47 1306.35Z" fill="#ECA342"/>
</svg>
