<svg width="3400" height="3680" viewBox="0 0 3400 3680" fill="none" xmlns="http://www.w3.org/2000/svg">
<path d="M1497.58 1738.89C1503.89 1744.11 1522.99 1750.25 1531.29 1751.74C1534.66 1752.35 1537.55 1751.36 1541.46 1752.45C1546.12 1753.75 1549.08 1757.88 1555.5 1759.7C1571.45 1764.25 1590.39 1763.5 1606.64 1767.83C1614.07 1768.63 1622.99 1765.05 1626.91 1758.54C1628.26 1756.27 1628.45 1753.53 1629.76 1751.24C1635.96 1740.47 1656.12 1718.96 1668.56 1716.74C1686.53 1713.54 1692.75 1722.23 1706.88 1727.84C1713.32 1730.41 1722.04 1730.73 1727.5 1732.85C1734.73 1735.65 1742.27 1736.7 1750.85 1736.92C1762.36 1737.22 1782.71 1737.11 1793.81 1735.9C1796.29 1735.64 1810.9 1730.07 1812.82 1728.4C1817.28 1724.51 1814.25 1716.99 1821.89 1712.43C1828.61 1708.41 1852.41 1707.25 1855.1 1703.47C1859.23 1697.67 1847.61 1691.2 1844.61 1687.31C1836.71 1677.1 1837.97 1666.35 1852.07 1664.54C1858.39 1663.73 1870.77 1663.54 1877.42 1663.56C1888.85 1663.59 1896.83 1665.07 1907.77 1666.87C1914.63 1668 1920.1 1666.76 1925.91 1670.68C1928.43 1672.39 1930.08 1675.47 1933.13 1676.54C1943.94 1680.34 1966.11 1673.97 1978.08 1672.87C1981.9 1672.52 1991.5 1671.67 1994.72 1672.23C1995.25 1672.33 2000.16 1677.35 2000.79 1678.53C2002.57 1681.91 2004.06 1693.82 2004.68 1694.35C2005.11 1694.71 2011.97 1691.44 2015.16 1692.24C2016.76 1692.64 2020.75 1697.93 2021.32 1699.4C2022.01 1701.18 2020.08 1702.46 2019.97 1704.53C2019.77 1708.22 2022.8 1720.55 2024.77 1723.83C2028.76 1730.45 2032.25 1718.42 2037.68 1724.02C2037.18 1714.74 2035.84 1709.66 2041.54 1701.86C2052.06 1687.49 2063.55 1694.99 2056.09 1710.83C2054.77 1713.63 2050.81 1719.72 2048.84 1722.17C2042.41 1730.2 2040.53 1726.7 2038.91 1738.27C2038.69 1739.93 2035.62 1741.2 2039.41 1743.12C2044.37 1745.64 2053.95 1745.86 2056.21 1753.26C2059.24 1763.15 2055.75 1784.73 2043.37 1786.64C2026.44 1789.23 2013.66 1776.3 1996.72 1773.62C1994.56 1773.27 1992.5 1775.71 1989.88 1772.75L1976.35 1798.6C1965.49 1802.32 1957.35 1811.97 1948.44 1818.8C1946.03 1820.65 1930.59 1830.98 1928.85 1831.37C1925.61 1832.11 1928.42 1826.85 1928.19 1826.7C1927.15 1826 1915.96 1827.65 1914.23 1828.66C1909.3 1831.54 1910.81 1847.17 1898.51 1841.69C1896.32 1840.7 1893.39 1835.67 1891.63 1838.43C1891.07 1839.29 1888.88 1852.41 1888.94 1853.99C1889.1 1858.23 1891.89 1861.91 1891.08 1866.83C1890.1 1872.92 1883.56 1876.59 1882.64 1879.78C1880.34 1887.55 1881.84 1911.08 1875.87 1915.04C1869.01 1919.58 1866.98 1908.84 1862.75 1905.67L1845.63 1898.33C1844.64 1899.35 1850.87 1904.42 1851.62 1905.99C1856.29 1915.74 1846.43 1925.37 1837.42 1927.3C1829.62 1928.98 1822.17 1925.24 1816.53 1931.42C1813.88 1934.31 1813.58 1939.43 1809.31 1940.13C1801.38 1941.41 1800.56 1934.07 1796.61 1933.19C1790.8 1931.9 1776.23 1942.17 1776.43 1928.63C1776.54 1921.14 1782.83 1919.68 1786.73 1914.68C1797.84 1900.44 1772.62 1910.08 1777.79 1894.64C1781.54 1883.45 1795.58 1885.01 1804.47 1887.7C1808.18 1888.81 1812.88 1892.14 1816.09 1892.71C1825.39 1894.38 1835.8 1891.95 1844.61 1896.98C1840.42 1893.85 1838.95 1888.28 1834.22 1885.78C1824.43 1880.6 1805.06 1884.65 1812.6 1865.47C1813.65 1862.8 1821.42 1853.85 1815.17 1852.84C1813.84 1852.61 1797.84 1857.91 1795.77 1858.93C1792.78 1860.39 1790.86 1863.32 1787.37 1864.69C1774.14 1869.94 1761.34 1866.22 1748.33 1878.19C1746.22 1880.15 1746.4 1882.74 1744.39 1883.64C1743.17 1884.17 1738.08 1885.45 1736.76 1885.55C1735.54 1885.64 1727.55 1885.31 1726.68 1885.15C1725.31 1884.89 1725.54 1881.91 1724.91 1881.49C1723.44 1880.51 1700.56 1886.26 1697.39 1887.93C1690.45 1891.6 1694.21 1892.78 1692.32 1895.86C1691.57 1897.06 1689.38 1896.49 1688.34 1897.15C1687.37 1897.77 1675.63 1914.1 1674.73 1915.7C1673.55 1917.77 1672.69 1924.5 1671.7 1924.78C1667.74 1925.93 1667.59 1921.55 1667.29 1917.91C1667.1 1915.6 1667.95 1906.33 1666.81 1905.29C1665.85 1904.4 1659.8 1906.54 1657.98 1906.61C1647.44 1907.01 1643.06 1887.61 1627.15 1892.42C1611.98 1896.99 1623.64 1906.29 1618.88 1914.56C1617.29 1917.32 1603.36 1930.77 1600.79 1930.31C1599.46 1930.06 1599.38 1926.64 1598.21 1925.26C1596.19 1922.85 1587.45 1919.71 1586.15 1916.76C1585.68 1915.72 1586.35 1910.87 1585.08 1907.24C1582.76 1900.64 1580.66 1897.49 1573.81 1900.81C1570.02 1902.64 1562.33 1913.26 1559.25 1909.28C1557.9 1907.53 1563.48 1881.7 1559.83 1879.44C1556.8 1877.56 1549.32 1887.43 1548.24 1889.75C1546.73 1892.99 1547.25 1897.77 1546.22 1901.42C1545.2 1905.08 1537.53 1919.49 1534.32 1921.11C1526.7 1924.97 1525.49 1915.48 1527.51 1910.26C1528.52 1907.63 1534.9 1902.53 1531.71 1900.54C1527.64 1897.99 1514.63 1907.18 1509.06 1905.5C1506.06 1904.6 1504.96 1897.76 1508.74 1896.48C1510.53 1895.88 1514.1 1897.21 1513.63 1894.71C1510.18 1892.3 1506.34 1886.75 1502.88 1884.88C1499.42 1883 1494.72 1883.21 1491.08 1882.03C1486.35 1880.47 1481.73 1877.98 1477.11 1876.63C1473.99 1875.72 1469.79 1875.93 1467.59 1875.21C1466.02 1874.68 1465.51 1872.41 1463.97 1871.32C1459.28 1867.96 1450.55 1870.03 1444.89 1868.53C1436.9 1866.41 1433.47 1848.46 1428.6 1846.14C1424.92 1844.39 1421.11 1845.41 1417.34 1841.74C1415.98 1840.42 1412.81 1835.33 1412.31 1833.5C1411.75 1831.46 1411.81 1825.49 1411.47 1825.13C1410.52 1824.11 1402.79 1824.32 1401.18 1818.18C1397.61 1804.61 1418.66 1804.19 1421.37 1799.34C1422.83 1796.72 1420.16 1790.2 1423.16 1786.54C1425.02 1784.27 1433.49 1783.1 1434.23 1781.89C1435.64 1779.61 1428.78 1776.99 1431.96 1771.41C1432.94 1769.71 1436.79 1770.08 1433.25 1766.96C1429.7 1763.85 1425.84 1765.92 1421.99 1765.47C1415.65 1764.73 1405.54 1747.68 1403.4 1741.67C1398.21 1727.15 1396.8 1715.97 1406.41 1703.29C1415.72 1690.97 1428.55 1680.21 1444.86 1680.24C1452.17 1680.25 1457.86 1684.95 1465.7 1684.18C1472.99 1683.48 1483.15 1677.05 1490.3 1677.94C1492.44 1678.2 1499.8 1682.1 1501.34 1683.66C1502.31 1684.64 1506.71 1692.34 1506.75 1693.34C1507.09 1702.05 1494.33 1705.24 1490.6 1710.83C1484.83 1719.48 1490.35 1732.89 1497.6 1738.88L1497.58 1738.89ZM2002.49 1742.52C1993.16 1744.84 1988.48 1763.17 1993.93 1768.89C1994.23 1769.21 2001.06 1771.44 2001.56 1771.42C2004.54 1771.29 2004.22 1766.38 2005.42 1764.2C2007.13 1761.14 2023.47 1746.29 2023.44 1744.78C2022.48 1743.37 2021.56 1743.61 2020.14 1743.48C2014.84 1742.96 2007.31 1741.32 2002.49 1742.52ZM2044.75 1750.05L2044.79 1750.99C2045.38 1750.66 2045.36 1750.35 2044.75 1750.05ZM2051.99 1755.4C2053.28 1754.16 2046.85 1750.12 2046.21 1750.94C2043.95 1754.72 2051.13 1756.24 2051.99 1755.4ZM2012.27 1770.99C2009.73 1768.3 2010.05 1776.67 2012.38 1773.79C2012.46 1773.68 2012.36 1771.09 2012.27 1770.99Z" fill="#ECA342"/>
<path d="M2072.43 1708.96C2071.18 1708.13 2068.29 1708.55 2067.91 1707.29C2066.62 1702.82 2068.95 1698.91 2069.28 1695.12C2069.8 1689.28 2068.63 1678.66 2074.2 1674.37C2076.02 1672.96 2078.21 1673.19 2079.72 1672.25C2081.92 1670.88 2080.58 1667.28 2086.44 1668.93C2089.67 1669.84 2101.45 1683.89 2102.77 1687.38C2104.82 1692.84 2103.43 1712.76 2099.21 1716.5C2094.65 1720.53 2084.06 1720.28 2079.1 1716.86C2076.32 1714.95 2074.11 1710.07 2072.43 1708.96Z" fill="#ECA342"/>
<path d="M1527.15 1717.57C1532.76 1715.82 1555.18 1729.03 1545.13 1732.49C1535.08 1735.96 1517.8 1720.47 1527.15 1717.57Z" fill="#ECA342"/>
<path d="M1361.21 1692.62C1357.59 1696.8 1346.56 1695.33 1348.52 1687.69C1350.94 1678.31 1368.03 1684.76 1361.21 1692.62Z" fill="#ECA342"/>
<path d="M2112.97 1569.41C2121.86 1566.02 2126.54 1578.76 2118.49 1581.8C2110.44 1584.85 2107.11 1571.64 2112.97 1569.41Z" fill="#ECA342"/>
<path d="M2162.07 1576.89C2172.31 1574.62 2170.6 1590.74 2159.64 1587.91C2154.62 1586.6 2156.72 1578.08 2162.07 1576.89Z" fill="#ECA342"/>
<path d="M1764.83 1999.15C1773.73 1996.26 1765.44 2013.76 1759.62 2012.28C1754.45 2010.97 1761.67 2000.18 1764.83 1999.15Z" fill="#ECA342"/>
<path d="M1577.96 1697.83C1586.08 1695.11 1588.44 1712.2 1578.38 1707.74C1573.46 1705.55 1573.39 1699.35 1577.96 1697.83Z" fill="#ECA342"/>
<path d="M1803.63 1959.27C1807.25 1958.28 1815.85 1958.3 1814.31 1963.71C1812.69 1969.38 1792.21 1962.35 1803.63 1959.27Z" fill="#ECA342"/>
<path d="M1364.82 1714.45C1371.37 1712.27 1370.91 1727.1 1362.34 1724.57C1358.47 1723.45 1361.25 1715.63 1364.82 1714.45Z" fill="#ECA342"/>
<path d="M1755.57 2025.39C1753.54 2027.67 1743.47 2026.18 1746.45 2020.53C1746.57 2020.3 1750.31 2017.58 1750.55 2017.5C1754.22 2016.33 1758.8 2021.76 1755.57 2025.39Z" fill="#ECA342"/>
<path d="M1763.82 1930.97C1757.19 1938.36 1752.32 1927.06 1759.4 1924.54C1761.31 1923.86 1765.52 1925.8 1766.04 1927.29C1766.87 1929.63 1764.86 1929.81 1763.82 1930.97Z" fill="#ECA342"/>
<path d="M1605.82 1716.42C1613.33 1713.63 1614.02 1725.46 1606.93 1725.59C1602.49 1725.68 1602.61 1717.61 1605.82 1716.42Z" fill="#ECA342"/>
<path d="M1762.18 1907.33C1770.28 1904.24 1773.39 1913.94 1766.07 1914.63C1760.19 1915.2 1759.14 1908.48 1762.18 1907.33Z" fill="#ECA342"/>
<path d="M1808.6 1943.94C1811.18 1943.05 1819.08 1945.14 1817.14 1949.15C1813.39 1956.88 1803.28 1945.78 1808.6 1943.94Z" fill="#ECA342"/>
<path d="M1581.67 1732.93C1578.76 1730.22 1580.54 1724.99 1585.3 1725.5C1592.16 1726.21 1587.27 1738.15 1581.67 1732.93Z" fill="#ECA342"/>
<path d="M1621.64 1736.47C1630.19 1734.33 1622.9 1746.93 1617.45 1743.54C1614.32 1741.58 1619.32 1737.05 1621.64 1736.47Z" fill="#ECA342"/>
<path d="M1401.21 1678.2C1404.75 1681.52 1394.05 1691.07 1393.8 1682.7C1393.68 1678.63 1400.2 1677.24 1401.21 1678.2Z" fill="#ECA342"/>
<path d="M1606.47 1756.35C1605.37 1757.56 1599.63 1757.21 1599.23 1756.85C1598.84 1756.49 1599.5 1751.73 1600.11 1751.33C1603.11 1749.3 1610.63 1751.75 1606.49 1756.35L1606.47 1756.35Z" fill="#ECA342"/>
</svg>
