<svg xmlns="http://www.w3.org/2000/svg" width="3400" height="3680"><path d="M1923.62 1783.99c27.31-1.21 58.91-2.1 79.7 18.42 25.69 24.88 41.82 82.36 41.93 116.54-.46 15.99-1.44 33.3-7.72 48.33-4.32 10.01-11.45 18.55-17.1 27.8-7.95 12.66-11.93 26.69-16.64 41.04-17.98 60.62-53.2 99.86-115.2 116.68-16.37 4.69-35.95 8.71-53.08 8.61-20.33-.18-33.6-6.44-53.06-13.67-19.5-7.71-40.29-12.14-60.49-17.12-23.86-6.33-38.09-14.66-39.47-41.46-2.54-38.62 20.89-79.88-1.46-114.7-6.79-10.1-17.17-17.4-27.41-24.57-15.46-10.99-32-20.08-43.49-35.09-7.21-9.6-9.46-22.24-6.45-33.84 6.23-25.37 29.45-40.24 52.52-49.95 11.4-4.74 22.38-8.08 33.96-11.27 71.88-19.14 159.49-31.99 233.29-35.75h.19Z" style="fill:#35773b"/></svg>