<svg xmlns="http://www.w3.org/2000/svg" width="3400" height="3680"><path d="M2013.03 1691.22c7.43 5.21 14.1 12.87 18.37 20.95 7.38 13.84-1.79 27.28-9.83 39.69-7.35 11.06-15.82 22.31-16.43 36.08-.97 12.78 5.14 24.85 11.7 35.35 22.42 35.73 31.28 83.38 25.77 124.84-2.26 19.2-12.47 31.55-22.65 47.27-9.2 14.72-14.39 31.98-19.98 47.95-7.77 23.55-18.27 46.72-35.24 65.25-30.46 33.04-82.98 50.91-127.43 52.62-20.18.88-38.87-5.79-57.26-14.04-16.14-7.2-33.26-11.11-50.42-14.96-13.66-3.45-28.15-6.47-37.51-17.08-21.16-26.05-.03-74.52-.97-106.33 1.55-36.69-23.92-54.16-54.6-66.06-14.93-5.69-30.6-10.17-45.19-16.97-18.47-8.42-35.09-19.86-53.09-28.87-35.3-18.5-85.55-34.78-101.99-73.98-11.29-28.39 2.61-65.49 24.56-85.02 24.34-22.18 58.9-28.22 90.84-30.11 70.24-4.65 143.27 4.57 213.52 6.19 75.87.16 148.25-34.51 224.08-30.11 8.4.46 16.88 2.48 23.61 7.25l.15.1Z" style="fill:#35773b"/></svg>