<svg width="3645" height="2779" viewBox="0 0 3645 2779" fill="none" xmlns="http://www.w3.org/2000/svg">
<path d="M2117.59 1226.57L2157.83 1212.83C2174.25 1212.77 2190.95 1212.28 2207.18 1215.13C2217.81 1216.99 2223.26 1218.21 2228.43 1228.24C2236.89 1244.69 2235.92 1266.12 2226.98 1282.29C2223.91 1287.84 2218.84 1292.1 2215.52 1296.96C2204.92 1312.43 2194.99 1328.52 2184.35 1343.94C2169.85 1364.97 2156.05 1371.14 2134.94 1383.06C2120.55 1391.2 2107.83 1402.3 2091.7 1407.12C2087.83 1423.66 2079.14 1440.13 2068.18 1453.05C2061.38 1461.09 2054.21 1465.58 2046.93 1474.01C2032.43 1490.84 2014.14 1490.77 1996.5 1498.63C1988.39 1502.25 1986.12 1510.01 1981.07 1515.95C1978.06 1519.48 1973.86 1522.17 1970.7 1526.2C1964.77 1533.69 1962.15 1545.14 1956.62 1551.08C1953.25 1554.7 1947.82 1556.56 1944.3 1559.53C1940.79 1562.51 1939.81 1566.19 1937.17 1569.2C1925.85 1582.14 1923.5 1584.57 1914.45 1599.62C1897.8 1627.28 1882.1 1625.55 1857.46 1638.95C1852.61 1641.58 1848.02 1645.59 1843.2 1648.32C1835.53 1652.64 1820.75 1661.86 1812.36 1661.11C1807.01 1660.65 1797.96 1652.71 1793.98 1648.78C1787.86 1642.76 1775.8 1628.12 1774.78 1619.7C1773.7 1610.69 1780.2 1602.53 1789.58 1606.73C1804.35 1613.33 1807.19 1624.99 1827.02 1617.96C1833.88 1615.53 1834.61 1613.16 1832.9 1605.77C1832.08 1602.22 1824.59 1593.12 1827.8 1590.69C1828.85 1589.89 1841.82 1589.53 1844.2 1589.66C1851.51 1590.05 1863.8 1595.77 1868.91 1589.04C1875.72 1580.06 1868.39 1570.05 1862.79 1562.75C1860.86 1560.23 1856.45 1557.87 1855.69 1554.75C1853.73 1546.73 1866.66 1538.09 1856.98 1531C1845.37 1522.52 1834.53 1554.09 1820.79 1541.8C1812.17 1534.1 1811.44 1518.53 1814.84 1508.23C1815.55 1506.09 1817.79 1504.37 1817.85 1501.97C1817.9 1499.75 1814.88 1485.87 1813.33 1484.98C1809.61 1484.38 1805.3 1486.92 1801.81 1486.97C1800.64 1486.98 1788.97 1485.23 1787.85 1484.89C1786.74 1484.56 1786.99 1482.5 1786.18 1481.66C1783.42 1478.72 1773.5 1474.76 1769.61 1475.29C1766.65 1475.7 1755.39 1480.6 1752.89 1482.45C1747.68 1486.32 1744.51 1493.37 1740.42 1497.98C1736.33 1502.6 1725.93 1511.23 1719.33 1510.97C1713.6 1510.74 1704.16 1506.45 1699.84 1502.74C1697.6 1500.83 1697.33 1496.9 1696.47 1496.13C1695.45 1495.2 1692.39 1495.92 1691.35 1492.37C1690.82 1490.52 1693.27 1483.09 1694.36 1481.5C1695.63 1479.63 1697.71 1480.1 1697.92 1479.84C1698.86 1478.77 1692.3 1463.83 1690.77 1462.07C1689.51 1460.59 1687.57 1461.49 1686.55 1459.48C1682.86 1452.16 1685.58 1438.82 1679.28 1432.79L1678.73 1441.77C1672.5 1443.87 1668.41 1441.7 1663.11 1439.03C1660.18 1441.66 1662.41 1445.01 1664.06 1447.73C1667.13 1452.79 1673.85 1455.75 1676.15 1461.01C1678.21 1465.75 1680.54 1483.15 1673.2 1483.59C1665.85 1484.03 1664.51 1475.58 1656.45 1479.83C1649.46 1483.5 1652.23 1497.35 1643.75 1501.53C1633.76 1498.78 1625.33 1499.34 1616.88 1492.86C1609.67 1487.34 1602.53 1472.92 1596.63 1470.85C1592.64 1469.43 1586.73 1470.09 1584.09 1465.88C1578.47 1456.91 1590.53 1458.9 1592.87 1455.25C1595.2 1451.6 1591.41 1446.52 1592.84 1441.66C1593.98 1437.77 1605.11 1433.59 1606.57 1424.57C1608.89 1410.28 1584.12 1419.69 1583.1 1418.66C1582.88 1417.31 1583.44 1415.3 1582.74 1414.17C1582.45 1413.7 1574.15 1409.02 1573.05 1408.56C1570.98 1407.69 1568.58 1407.7 1566.45 1406.9C1557.29 1403.47 1549.91 1388.33 1542.71 1381.84C1540.73 1380.06 1537.75 1379.87 1536.04 1378.32C1534.22 1376.67 1531.15 1363.92 1531.24 1361.23C1531.4 1356.03 1535.23 1353.77 1537.33 1349.66C1532.22 1347.38 1530.73 1342.18 1534.76 1337.98C1538.8 1333.78 1546.4 1336.07 1546.84 1327.71C1547.27 1319.54 1542.8 1320.68 1539 1315.66C1531.64 1306 1531.67 1285.28 1535.86 1274.23C1541.56 1259.18 1556.8 1269.53 1564.86 1255.95C1571.31 1245.07 1569.88 1233.53 1585.93 1228.51C1599.15 1224.37 1598.49 1229.66 1607.07 1235.34C1611.96 1238.57 1617.82 1239.29 1621.84 1244.74C1625.87 1250.2 1625.13 1256.81 1627.7 1262.8C1642.74 1263.02 1654.81 1262.9 1665.18 1274.98C1669.48 1280 1674.58 1291.79 1677.68 1294.65C1681.39 1298.08 1698.11 1305.16 1703.87 1308.29C1707.98 1310.53 1713.58 1315.99 1718.49 1315.95C1720.47 1315.95 1730.98 1310.18 1732.97 1308.71C1746.79 1298.49 1748.29 1272.34 1760.47 1264.65C1772.64 1256.96 1774.2 1267.97 1780.69 1276.02C1789.26 1286.63 1787.53 1281.77 1796.15 1277.85C1808 1272.45 1821.38 1272.89 1832.94 1278.79C1834.01 1279.33 1834.24 1280.82 1835.28 1281.35C1853.2 1290.21 1874.8 1299.49 1895.22 1293.77C1902.11 1291.83 1905.44 1287.15 1913.02 1288.11C1926.02 1289.78 1924.09 1294.55 1939.54 1288.76C1942.94 1287.48 1965.98 1278.63 1959.09 1273.46C1958.65 1273.13 1949.83 1268.86 1949.12 1268.63C1942.75 1266.62 1938.75 1269.65 1937.9 1260.17C1936.88 1248.75 1953.66 1219.37 1963.31 1214.16C1967.24 1212.05 1971.24 1210.49 1975.08 1213.3C1982.71 1218.89 1978.43 1227.91 1979.25 1235.05C1981.16 1251.51 2000.82 1253.78 2012.32 1245.1C2018.3 1240.59 2019.98 1234.19 2023.94 1228.78C2028.12 1223.06 2047.31 1206.41 2053.7 1204.84C2060.59 1203.15 2058.52 1211.07 2062.82 1209.79C2066.61 1208.66 2077.03 1199.46 2082.07 1196.84C2093.64 1190.82 2104.67 1188.23 2117.23 1193.34C2127.52 1197.5 2126.6 1209.32 2122.46 1218.01C2121.79 1219.39 2116.95 1226.04 2117.59 1226.59L2117.59 1226.57ZM2066.9 1224.75C2073.31 1227.21 2079.48 1226.57 2085.61 1223.58C2089.44 1221.72 2100.43 1213.31 2097.72 1208.57C2092.22 1203.77 2086.55 1207.36 2081.15 1210.43C2078.35 1212.01 2064.48 1221.54 2066.9 1224.75Z" fill="#D1575A"/>
<path d="M2291.51 1098.25C2294.74 1097.74 2298.07 1097.44 2301.31 1097.84C2304.98 1098.28 2325.89 1105.22 2329.91 1106.92C2364 1121.35 2348.03 1192.74 2311.85 1198.38C2300.67 1200.12 2274.86 1200.71 2266.67 1191.81C2258.49 1182.9 2266.36 1169.68 2266.01 1159.44C2265.89 1156.23 2265.39 1150.47 2261.43 1150.66C2253.27 1151.04 2227.03 1158.35 2222.62 1165.38C2220.19 1169.25 2217.99 1177.18 2215.73 1181.57C2212.1 1188.62 2204.68 1202.58 2195.07 1194.04C2186.91 1186.79 2192 1172.26 2195.61 1163.84C2203.63 1145.12 2225.47 1112.03 2249.57 1118.61C2252.7 1119.45 2255.2 1122.38 2257.93 1121.42C2270.19 1111.91 2274.6 1100.89 2291.49 1098.25L2291.51 1098.25Z" fill="#D1575A"/>
<path d="M1560.71 1427.28C1564.29 1434.06 1556.84 1440.76 1551.34 1433.97C1549.95 1431.43 1551.51 1428.62 1553.42 1426.86L1560.71 1427.28Z" fill="#D1575A"/>
<path d="M1620.24 1513.18C1636.66 1509.56 1623.4 1527.45 1617.89 1521.08C1614.78 1517.47 1615.45 1514.24 1620.24 1513.18Z" fill="#D1575A"/>
<path d="M1581.93 1489.23C1583.02 1489.86 1583.46 1494.62 1582.37 1495.96L1577.7 1497.29C1572.82 1494.4 1577.65 1486.76 1581.93 1489.23Z" fill="#D1575A"/>
</svg>
