<svg xmlns="http://www.w3.org/2000/svg" width="3400" height="3680"><path d="M2023.32 1838.38c17.37 32.19 24.1 71.46 19.18 107.86-.79 5.73-2.02 11.38-3.98 16.8-4.07 11.7-12.28 21.69-18.72 32.33-9.06 14.74-14.31 32.13-19.88 48.09-9.05 27.75-22.52 55.38-44.96 74.93-34.48 28.71-87.79 46.75-132.85 42.54-14.1-1.64-27.56-7.21-40.63-12.83-12.85-5.64-25.79-9.53-39.42-12.52-17.67-4.87-41.71-6.99-52.03-22.95-22.19-38.22 18.93-99.63-8.42-139.33-16.44-22.42-44.7-30.37-69.62-39.19-15.13-5.22-29.52-12.33-43.64-19.8-12.36-6.48-25.09-12.02-38.62-15.4-21.84-5.67-44.35-7.55-63.43-19.42-7.75-4.61-16-10.42-23.43-15.89-11.84-8.64-23.16-18.21-29.64-31.25-14.99-29.33-20.35-73.85-3.82-102.66 16.41-28.39 68.37-28.44 97.92-31.24 94.73-7.62 185.69-18.58 281.79-11.04 39.61 3.16 78.85 5.91 117.64-3.35 15.99-3.62 32.18-8.16 48.36-11.76 14-2.8 27.38-6.63 40.95-3.64 13.1 2.95 20.26 16.05 26.87 27.19 3.16 5.31 6.4 10.59 8.61 16.24 4.84 10.96.15 22.7-6.08 32.75-10.36 15.86-24.51 33.99-19.81 54.36 3.18 13.99 11.6 26.04 17.62 39.01l.09.18Z" style="fill:#35773b"/></svg>