<svg xmlns="http://www.w3.org/2000/svg" width="3400" height="3680"><path d="M1773.68 1850.39c64.63-2.74 129.44 2.22 192.92 14.62 7.92 1.6 16.1 3.41 23.2 7.27 28.45 15.56 19.57 62.64 24.68 91.37 5.22 30.4-.03 49.85-11.26 78.14-13.91 33.29-28.95 64.2-58.24 84.6-40.92 27.77-100.49 43.56-147.43 28.41-11.17-3.73-22.62-9.44-33.73-13.34-6.63-2.37-13.4-4.19-20.28-5.82-15.63-3.94-33.06-6.71-46.36-15.18-7.16-4.75-11.36-11.88-13.24-20.38-8.76-38.29 16.17-78.25 2.74-114.88-14.27-39.61-55.69-44.06-63.08-74.86-4.67-20.28 5.9-36.75 25.22-43.36 36.17-11.72 85.45-14.38 124.68-16.57h.18Z" style="fill:#35773b"/></svg>