<svg xmlns="http://www.w3.org/2000/svg" width="3400" height="3680"><path d="M1936.78 1768.46c55.85-2.09 67.36 6.63 87.67 59.64 14.05 38.85 24.83 81.95 17.8 122.65-2.74 17.21-13.26 30.71-22.31 45.14-4.08 6.75-7.42 13.88-10.28 21.22-7.2 18.52-12.14 36.7-20.49 54.52-8.06 17.31-19.98 34.45-34.65 47.14-36.12 29.95-99 50.38-145.72 39.16-16.71-4.34-32.92-13.48-49.71-18.31-11.33-3.43-23.02-5.63-34.49-8.56-9.23-2.39-18.3-4.92-25.94-10.09-39.93-27.58 9.4-103.92-14.86-143.94-33.58-51.68-125.72-38.72-160.12-106.57-20.15-40.27-12.05-69.21 34.57-79.34 14.11-3.19 29.69-4.44 44.18-5.08 111.92-1.78 222.32-13.31 334.11-17.57h.22Z" style="fill:#35773b"/></svg>