<svg xmlns="http://www.w3.org/2000/svg" width="3400" height="3680"><path d="M1996.74 1694.03c9.66-.78 19.08 2.2 26.55 8.47 5.21 4.32 9.62 9.81 11.01 16.41 2.28 12.53-8.69 24.33-15.17 35.19-3.57 5.47-7.13 11.15-9.74 17.11-8.22 17.91-4.02 34.01 6.02 49.97 8.58 13.96 16.13 29.03 20.46 45.01 8.61 31.63 12.9 66.9 2.47 98.22-6.82 17.19-21 31.4-27.44 49.06-7.29 17.73-12.01 35.45-19.42 52.88-8.28 19.69-20.65 38.63-36.82 52.8-33.87 28.17-86.41 45.56-130.72 42.36-22.55-1.84-42.61-14.6-64.13-21.04-11.06-3.4-22.47-5.58-33.7-8.39-11.01-2.84-21.83-5.61-30.2-12.61-9.46-7.69-12.83-20.16-13.08-31.97-1.55-41.37 27.52-98.74-15.17-128.13-29.94-21.4-67.21-27.2-99.19-45.04-24.77-13.54-50.3-29.06-73.09-45.19-16.36-11.65-32.7-26.63-41.21-45.02-19.25-40.95 12.15-80.65 53.14-91.61 10.86-3.19 22.74-4.78 33.65-5.57 77.5-4.84 158.12 1.46 236.18-7.19 49.08-6.25 98.48 1.28 147.31-7.72 12.83-2.16 25.53-5.52 37.93-9.47 11.23-3.44 22.71-7.63 34.18-8.49h.19Z" style="fill:#35773b"/></svg>