<svg xmlns="http://www.w3.org/2000/svg" width="3400" height="3680"><path d="M1993.02 1915.94c8.87 4.56 13.82 13.98 16.63 23.33 4.36 14.65 6.69 32.01 6.75 47.18.11 14.87-3.58 28.7-9.44 42.23-30.27 71.63-112.92 131.17-189.89 103.43-6.25-1.68-12.52-3.03-18.88-3.54-9.11-.79-18.33.16-27.44.23-12.16.17-23.03-1.74-35.95-6.11-16.22-5.81-35.52-14.18-44.28-29.56-10.95-22.21 7.95-44.9 22.38-61.17 11.42-12.69 23.29-24.93 31.35-40.16 16.42-29.89 22.98-71.57 50.5-86.35 25.23-13.92 59.98-7.99 87.76-5.48 30.03 3.33 60.08 6.66 89.94 10.25 6.96.9 14.47 2.38 20.42 5.63l.16.09Z" style="fill:#35773b"/></svg>