<svg xmlns="http://www.w3.org/2000/svg" width="3400" height="3680"><path d="M1971.32 1730.09c12.17-.03 46.32-3.33 51.02 10.2 1.97 8.43-4.23 15.19-8.81 23.91-7.92 13.31-11.05 30.28-4.24 44.65 3.69 8.27 8.94 15.52 13.2 23.64 19.25 37.16 29.39 91.57 16.33 131.3-4.26 11.46-12.77 21.72-19.21 32.33-9.03 14.65-14.34 31.9-19.83 47.75-8.04 24.91-19.72 49.56-38.35 68.43-33.29 33.45-90.6 50.94-136.46 48.12-25.01-1.27-46.61-16.02-70.45-22.1-14.69-3.89-31.6-6.74-45.42-11.7-10.75-3.53-19.87-11.12-23.2-22.22-7.44-23.59.05-48.4 3.19-72.54 2.71-19.06 4.07-41.14-6.78-57.43-22.39-31.32-68.65-37.74-101.71-54.08-13.82-6.32-25.76-13.87-38.14-22.85-19.66-14.28-42.58-32.32-59.04-50.24-4.21-4.63-7.84-9.38-10.62-14.93-16.96-36 6.53-64.73 42.28-73.73 74.48-15.02 150.84-12.41 226.31-16.49 76.56-3.37 153.14-9.12 229.74-12.02z" style="fill:#35773b"/></svg>