<svg width="3400" height="3680" viewBox="0 0 3400 3680" fill="none" xmlns="http://www.w3.org/2000/svg">
<path d="M1994.59 1676.57L2034.83 1662.83C2051.25 1662.77 2067.95 1662.28 2084.18 1665.13C2094.81 1666.99 2100.26 1668.21 2105.43 1678.24C2113.89 1694.69 2112.92 1716.12 2103.98 1732.29C2100.91 1737.84 2095.84 1742.1 2092.52 1746.96C2081.92 1762.43 2071.99 1778.52 2061.35 1793.94C2046.85 1814.97 2033.05 1821.14 2011.94 1833.06C1997.55 1841.2 1984.83 1852.3 1968.7 1857.12C1964.83 1873.66 1956.14 1890.13 1945.18 1903.05C1938.38 1911.09 1931.21 1915.58 1923.93 1924.01C1909.43 1940.84 1891.14 1940.77 1873.5 1948.63C1865.39 1952.25 1863.12 1960.01 1858.07 1965.95C1855.06 1969.48 1850.86 1972.17 1847.7 1976.2C1841.77 1983.69 1839.15 1995.14 1833.62 2001.08C1830.25 2004.7 1824.82 2006.56 1821.3 2009.53C1817.79 2012.51 1816.81 2016.19 1814.17 2019.2C1802.85 2032.14 1800.5 2034.57 1791.45 2049.62C1774.8 2077.28 1759.1 2075.55 1734.46 2088.95C1729.61 2091.58 1725.02 2095.59 1720.2 2098.32C1712.53 2102.64 1697.75 2111.86 1689.36 2111.11C1684.01 2110.65 1674.96 2102.71 1670.98 2098.78C1664.86 2092.76 1652.8 2078.12 1651.78 2069.7C1650.7 2060.69 1657.2 2052.53 1666.58 2056.73C1681.35 2063.33 1684.19 2074.99 1704.02 2067.96C1710.88 2065.53 1711.61 2063.16 1709.9 2055.77C1709.08 2052.22 1701.59 2043.12 1704.8 2040.69C1705.85 2039.89 1718.82 2039.53 1721.2 2039.66C1728.51 2040.05 1740.8 2045.77 1745.91 2039.04C1752.72 2030.06 1745.39 2020.05 1739.79 2012.75C1737.86 2010.23 1733.45 2007.87 1732.69 2004.75C1730.73 1996.73 1743.66 1988.09 1733.98 1981C1722.37 1972.52 1711.53 2004.09 1697.79 1991.8C1689.17 1984.1 1688.44 1968.53 1691.84 1958.23C1692.55 1956.09 1694.79 1954.37 1694.85 1951.97C1694.9 1949.75 1691.88 1935.87 1690.33 1934.98C1686.61 1934.38 1682.3 1936.92 1678.81 1936.97C1677.64 1936.98 1665.97 1935.23 1664.85 1934.89C1663.74 1934.56 1663.99 1932.5 1663.18 1931.66C1660.42 1928.72 1650.5 1924.76 1646.61 1925.29C1643.65 1925.7 1632.39 1930.6 1629.89 1932.45C1624.68 1936.32 1621.51 1943.37 1617.42 1947.98C1613.33 1952.6 1602.93 1961.23 1596.33 1960.97C1590.6 1960.74 1581.16 1956.45 1576.84 1952.74C1574.6 1950.83 1574.33 1946.9 1573.47 1946.13C1572.45 1945.2 1569.39 1945.92 1568.35 1942.37C1567.82 1940.52 1570.27 1933.09 1571.36 1931.5C1572.63 1929.63 1574.71 1930.1 1574.92 1929.84C1575.86 1928.77 1569.3 1913.83 1567.77 1912.07C1566.51 1910.59 1564.57 1911.49 1563.55 1909.48C1559.86 1902.16 1562.58 1888.82 1556.28 1882.79L1555.73 1891.77C1549.5 1893.87 1545.41 1891.7 1540.11 1889.03C1537.18 1891.66 1539.41 1895.01 1541.06 1897.73C1544.13 1902.79 1550.85 1905.75 1553.15 1911.01C1555.21 1915.75 1557.54 1933.15 1550.2 1933.59C1542.85 1934.03 1541.51 1925.58 1533.45 1929.83C1526.46 1933.5 1529.23 1947.35 1520.75 1951.53C1510.76 1948.78 1502.33 1949.34 1493.88 1942.86C1486.67 1937.34 1479.53 1922.92 1473.63 1920.85C1469.64 1919.43 1463.73 1920.09 1461.09 1915.88C1455.47 1906.91 1467.53 1908.9 1469.87 1905.25C1472.2 1901.6 1468.41 1896.52 1469.84 1891.66C1470.98 1887.77 1482.11 1883.59 1483.57 1874.57C1485.89 1860.28 1461.12 1869.69 1460.1 1868.66C1459.88 1867.31 1460.44 1865.3 1459.74 1864.17C1459.45 1863.7 1451.15 1859.02 1450.05 1858.56C1447.98 1857.69 1445.58 1857.7 1443.45 1856.9C1434.29 1853.47 1426.91 1838.33 1419.71 1831.84C1417.73 1830.06 1414.75 1829.87 1413.04 1828.32C1411.22 1826.67 1408.15 1813.92 1408.24 1811.23C1408.4 1806.03 1412.23 1803.77 1414.33 1799.66C1409.22 1797.38 1407.73 1792.18 1411.76 1787.98C1415.8 1783.78 1423.4 1786.07 1423.84 1777.71C1424.27 1769.54 1419.8 1770.68 1416 1765.66C1408.64 1756 1408.67 1735.28 1412.86 1724.23C1418.56 1709.18 1433.8 1719.53 1441.86 1705.95C1448.31 1695.07 1446.88 1683.53 1462.93 1678.51C1476.15 1674.37 1475.49 1679.66 1484.07 1685.34C1488.96 1688.57 1494.82 1689.29 1498.84 1694.74C1502.87 1700.2 1502.13 1706.81 1504.7 1712.8C1519.74 1713.02 1531.81 1712.9 1542.18 1724.98C1546.48 1730 1551.58 1741.79 1554.68 1744.65C1558.39 1748.08 1575.11 1755.16 1580.87 1758.29C1584.98 1760.53 1590.58 1765.99 1595.49 1765.95C1597.47 1765.95 1607.98 1760.18 1609.97 1758.71C1623.79 1748.49 1625.29 1722.34 1637.47 1714.65C1649.64 1706.96 1651.2 1717.97 1657.69 1726.02C1666.26 1736.63 1664.53 1731.77 1673.15 1727.85C1685 1722.45 1698.38 1722.89 1709.94 1728.79C1711.01 1729.33 1711.24 1730.82 1712.28 1731.35C1730.2 1740.21 1751.8 1749.49 1772.22 1743.77C1779.11 1741.83 1782.44 1737.15 1790.02 1738.11C1803.02 1739.78 1801.09 1744.55 1816.54 1738.76C1819.94 1737.48 1842.98 1728.63 1836.09 1723.46C1835.65 1723.13 1826.83 1718.86 1826.12 1718.63C1819.75 1716.62 1815.75 1719.65 1814.9 1710.17C1813.88 1698.75 1830.66 1669.37 1840.31 1664.16C1844.24 1662.05 1848.24 1660.49 1852.08 1663.3C1859.71 1668.89 1855.43 1677.91 1856.25 1685.05C1858.16 1701.51 1877.82 1703.78 1889.32 1695.1C1895.3 1690.59 1896.98 1684.19 1900.94 1678.78C1905.12 1673.06 1924.31 1656.41 1930.7 1654.84C1937.59 1653.15 1935.52 1661.07 1939.82 1659.79C1943.61 1658.66 1954.03 1649.46 1959.07 1646.84C1970.64 1640.82 1981.67 1638.23 1994.23 1643.34C2004.52 1647.5 2003.6 1659.32 1999.46 1668.01C1998.79 1669.39 1993.95 1676.04 1994.59 1676.59L1994.59 1676.57ZM1943.9 1674.75C1950.31 1677.21 1956.48 1676.57 1962.61 1673.58C1966.44 1671.72 1977.43 1663.31 1974.72 1658.57C1969.22 1653.77 1963.55 1657.36 1958.15 1660.43C1955.35 1662.01 1941.48 1671.54 1943.9 1674.75Z" fill="#D1575A"/>
<path d="M2168.51 1548.25C2171.74 1547.74 2175.07 1547.44 2178.31 1547.84C2181.98 1548.28 2202.89 1555.22 2206.91 1556.92C2241 1571.35 2225.03 1642.74 2188.85 1648.38C2177.67 1650.12 2151.86 1650.71 2143.67 1641.81C2135.49 1632.9 2143.36 1619.68 2143.01 1609.44C2142.89 1606.23 2142.39 1600.47 2138.43 1600.66C2130.27 1601.04 2104.03 1608.35 2099.62 1615.38C2097.19 1619.25 2094.99 1627.18 2092.73 1631.57C2089.1 1638.62 2081.68 1652.58 2072.07 1644.04C2063.91 1636.79 2069 1622.26 2072.61 1613.84C2080.63 1595.12 2102.47 1562.03 2126.57 1568.61C2129.7 1569.45 2132.2 1572.38 2134.93 1571.42C2147.19 1561.91 2151.6 1550.89 2168.49 1548.25L2168.51 1548.25Z" fill="#D1575A"/>
<path d="M1437.71 1877.28C1441.29 1884.06 1433.84 1890.76 1428.34 1883.97C1426.95 1881.43 1428.51 1878.62 1430.42 1876.86L1437.71 1877.28Z" fill="#D1575A"/>
<path d="M1497.24 1963.18C1513.66 1959.56 1500.4 1977.45 1494.89 1971.08C1491.78 1967.47 1492.45 1964.24 1497.24 1963.18Z" fill="#D1575A"/>
<path d="M1458.93 1939.23C1460.02 1939.86 1460.46 1944.62 1459.37 1945.96L1454.7 1947.29C1449.82 1944.4 1454.65 1936.76 1458.93 1939.23Z" fill="#D1575A"/>
</svg>
